<?xml version="1.0" encoding="iso-8859-1"?>
<!-- Generator: Adobe Illustrator 19.0.0, SVG Export Plug-In . SVG Version: 6.00 Build 0)  -->
<svg version="1.1" id="Layer_1" xmlns="http://www.w3.org/2000/svg" xmlns:xlink="http://www.w3.org/1999/xlink" x="0px" y="0px"
	 viewBox="0 0 497.6 497.6" style="enable-background:new 0 0 497.6 497.6;" xml:space="preserve">
<circle style="fill:#19AFBF;" cx="262.8" cy="250.4" r="216.8"/>
<path style="fill:#0E94AA;" d="M109.2,96.8C194,12,330.8,12,415.6,96.8s84.8,221.6,0,306.4"/>
<circle style="fill:#FFCE00;" cx="177.2" cy="159.2" r="91.2"/>
<path style="fill:#FF9D00;" d="M177.2,68c50.4,0,91.2,40.8,91.2,91.2s-40.8,91.2-91.2,91.2"/>
<path style="fill:#FFBC00;" d="M268.4,159.2c0,50.4-40.8,84.8-91.2,84.8S86,210.4,86,159.2s40.8-84.8,91.2-84.8
	C227.6,75.2,268.4,108.8,268.4,159.2z"/>
<path style="fill:#FFB000;" d="M177.2,75.2c50.4,0,91.2,33.6,91.2,84.8s-40.8,84.8-91.2,84.8S86,211.2,86,160"/>
<path style="fill:#FFBC00;" d="M177.2,75.2c50.4,0,91.2,33.6,91.2,84.8s-40.8,84.8-91.2,84.8"/>
<path style="fill:#FFCE00;" d="M268.4,159.2c0,50.4-40.8,84.8-91.2,84.8"/>
<circle style="fill:#FF9D00;" cx="177.2" cy="38.4" r="7.2"/>
<polygon style="fill:#FFCE00;" points="185.2,15.2 177.2,18.4 169.2,15.2 177.2,0 "/>
<circle style="fill:#FF9D00;" cx="177.2" cy="280.8" r="7.2"/>
<polygon style="fill:#FFCE00;" points="169.2,303.2 177.2,300.8 185.2,303.2 177.2,319.2 "/>
<circle style="fill:#FF9D00;" cx="262.8" cy="73.6" r="7.2"/>
<polygon style="fill:#FFCE00;" points="284.4,63.2 277.2,59.2 273.2,52 290,46.4 "/>
<circle style="fill:#FF9D00;" cx="91.6" cy="244.8" r="7.2"/>
<polygon style="fill:#FFCE00;" points="70,255.2 77.2,259.2 81.2,266.4 64.4,272 "/>
<circle style="fill:#FF9D00;" cx="298.8" cy="159.2" r="7.2"/>
<polygon style="fill:#FFCE00;" points="321.2,167.2 318,159.2 321.2,151.2 336.4,159.2 "/>
<circle style="fill:#FF9D00;" cx="55.6" cy="159.2" r="7.2"/>
<polygon style="fill:#FFCE00;" points="33.2,151.2 35.6,159.2 33.2,167.2 17.2,159.2 "/>
<circle style="fill:#FF9D00;" cx="262.8" cy="244.8" r="7.2"/>
<polygon style="fill:#FFCE00;" points="273.2,266.4 277.2,259.2 284.4,255.2 290,272 "/>
<circle style="fill:#FF9D00;" cx="91.6" cy="73.6" r="7.2"/>
<g>
	<polygon style="fill:#FFCE00;" points="81.2,52 77.2,59.2 70,63.2 64.4,46.4 	"/>
	<circle style="fill:#FFCE00;" cx="224.4" cy="48" r="7.2"/>
</g>
<polygon style="fill:#FF9D00;" points="240.4,30.4 232.4,29.6 226,24 239.6,12 "/>
<circle style="fill:#FFCE00;" cx="130" cy="271.2" r="7.2"/>
<polygon style="fill:#FF9D00;" points="113.2,288.8 122,289.6 128.4,295.2 114.8,306.4 "/>
<circle style="fill:#FFCE00;" cx="290" cy="113.6" r="7.2"/>
<polygon style="fill:#FF9D00;" points="313.2,112.8 308.4,106.4 307.6,97.6 325.2,99.2 "/>
<circle style="fill:#FFCE00;" cx="64.4" cy="204.8" r="7.2"/>
<polygon style="fill:#FF9D00;" points="40.4,205.6 46,212 46.8,220.8 29.2,219.2 "/>
<circle style="fill:#FFCE00;" cx="288.4" cy="206.4" r="7.2"/>
<polygon style="fill:#FF9D00;" points="306,223.2 306.8,214.4 312.4,208 324.4,221.6 "/>
<circle style="fill:#FFCE00;" cx="65.2" cy="112" r="7.2"/>
<polygon style="fill:#FF9D00;" points="47.6,96 46.8,104 41.2,110.4 30,96.8 "/>
<circle style="fill:#FFCE00;" cx="222.8" cy="272" r="7.2"/>
<polygon style="fill:#FF9D00;" points="223.6,296 230,290.4 238.8,289.6 237.2,307.2 "/>
<circle style="fill:#FFCE00;" cx="131.6" cy="47.2" r="7.2"/>
<polygon style="fill:#FF9D00;" points="130.8,23.2 124.4,28.8 115.6,28.8 117.2,11.2 "/>
<path style="fill:#C5EAE7;" d="M479.6,300.8c0-73.6-60-132.8-133.6-132.8c-52,0-96.8,29.6-119.2,73.6c-4.8-0.8-9.6-1.6-15.2-1.6
	c-34.4,0-63.2,28-63.2,63.2c0,1.6,0.8,3.2,0.8,4c-44.8,4-68.8,44-68.8,92v6.4c0,52,40.8,92,92,92h212.8c52,0,95.2-40,95.2-92V376
	C480.4,352,479.6,325.6,479.6,300.8z"/>
<path style="fill:#98D3CD;" d="M479.6,318.4c0-73.6-60-132.8-133.6-132.8c-52,0-96.8,29.6-119.2,73.6c-4.8-0.8-9.6-1.6-15.2-1.6
	c-34.4,0-63.2,28-63.2,63.2c0,1.6,0.8,3.2,0.8,4c-44.8,4-68.8,26.4-68.8,74.4v6.4c0,52,40.8,92,92,92h212.8c52,0,95.2-40,95.2-92
	V376C480.4,352,479.6,343.2,479.6,318.4z"/>
<path style="fill:#8BCCC2;" d="M176.4,497.6h208.8c52,0,95.2-40,95.2-92V376c0-24-0.8-32.8-0.8-57.6"/>
<g>
	<path style="fill:#C5EAE7;" d="M288.4,320c-4-0.8-8-1.6-12.8-1.6c-24.8,0-44.8,20-44.8,44.8c0,4,0.8,8.8,1.6,12.8
		C237.2,346.4,259.6,324,288.4,320z"/>
	<path style="fill:#C5EAE7;" d="M365.2,279.2c-4.8-2.4-10.4-4.8-16-5.6c-32.8-6.4-64.8,16-71.2,48.8c-0.8,5.6-0.8,12,0,17.6
		C290,302.4,326,276.8,365.2,279.2z"/>
	<circle style="fill:#C5EAE7;" cx="124.4" cy="392.8" r="4.8"/>
	<circle style="fill:#C5EAE7;" cx="135.6" cy="359.2" r="6.4"/>
	<circle style="fill:#C5EAE7;" cx="212.4" cy="295.2" r="2.4"/>
	<circle style="fill:#C5EAE7;" cx="274" cy="261.6" r="6.4"/>
	<circle style="fill:#C5EAE7;" cx="326" cy="207.2" r="3.2"/>
	<circle style="fill:#C5EAE7;" cx="356.4" cy="216.8" r="9.6"/>
</g>
<g>
</g>
<g>
</g>
<g>
</g>
<g>
</g>
<g>
</g>
<g>
</g>
<g>
</g>
<g>
</g>
<g>
</g>
<g>
</g>
<g>
</g>
<g>
</g>
<g>
</g>
<g>
</g>
<g>
</g>
</svg>
