<?xml version="1.0" encoding="utf-8"?>
<!-- Generator: Adobe Illustrator 20.0.0, SVG Export Plug-In . SVG Version: 6.00 Build 0)  -->
<svg version="1.1" id="Layer_1" xmlns="http://www.w3.org/2000/svg" xmlns:xlink="http://www.w3.org/1999/xlink" x="0px" y="0px"
	 viewBox="0 0 392 392" enable-background="new 0 0 392 392" xml:space="preserve">
<g>
	<g>
		<defs>
			<rect id="SVGID_1_" x="10" y="5" width="372" height="402.7"/>
		</defs>
		<clipPath id="SVGID_2_">
			<use xlink:href="#SVGID_1_"  overflow="visible"/>
		</clipPath>
		<path clip-path="url(#SVGID_2_)" fill="#063F66" d="M381.8,209.6c0,95.8-77.7,173.4-173.4,173.4C112.6,383.1,35,305.4,35,209.6
			S112.6,36.2,208.4,36.2C304.2,36.2,381.8,113.9,381.8,209.6L381.8,209.6z M381.8,209.6"/>
		<path clip-path="url(#SVGID_2_)" fill="#022730" d="M85.5,86.8c67.8-67.8,177.3-67.8,245.1,0c67.8,67.8,67.8,177.3,0,245.1"/>
	</g>
	<path display="none" fill="#5EE0EA" d="M154.6,338.3c0,3.2-3.2,6.4-6.4,6.4c-3.8,0-6.4-2.6-6.4-6.4s3.2-13.4,6.4-13.4
		C151.4,324.8,154.6,335.1,154.6,338.3L154.6,338.3z M154.6,338.3"/>
	<path display="none" fill="#30B9D8" d="M148.2,324.8c3.8,0,6.4,10.2,6.4,13.4c0,3.2-3.2,6.4-6.4,6.4"/>
	<path display="none" fill="#5EE0EA" d="M184.1,338.3c0,3.2-3.2,6.4-6.4,6.4c-3.8,0-6.4-2.6-6.4-6.4s3.2-13.4,6.4-13.4
		C180.9,324.8,184.1,335.1,184.1,338.3L184.1,338.3z M184.1,338.3"/>
	<path display="none" fill="#30B9D8" d="M177.7,324.8c3.8,0,6.4,10.2,6.4,13.4c0,3.2-3.2,6.4-6.4,6.4"/>
	<path display="none" fill="#5EE0EA" d="M213.5,338.3c0,3.2-3.2,6.4-6.4,6.4c-3.8,0-6.4-2.6-6.4-6.4s3.2-13.4,6.4-13.4
		C210.3,324.8,213.5,335.1,213.5,338.3L213.5,338.3z M213.5,338.3"/>
	<path display="none" fill="#30B9D8" d="M207.1,324.8c3.8,0,6.4,10.2,6.4,13.4c0,3.2-3.2,6.4-6.4,6.4"/>
	<path display="none" fill="#5EE0EA" d="M243,338.3c0,3.2-3.2,6.4-6.4,6.4c-3.8,0-6.4-2.6-6.4-6.4s3.2-13.4,6.4-13.4
		C239.8,324.8,243,335.1,243,338.3L243,338.3z M243,338.3"/>
	<path display="none" fill="#30B9D8" d="M236.6,324.8c3.8,0,6.4,10.2,6.4,13.4c0,3.2-3.2,6.4-6.4,6.4"/>
	<path display="none" fill="#5EE0EA" d="M272.4,338.3c0,3.2-3.2,6.4-6.4,6.4c-3.8,0-6.4-2.6-6.4-6.4s3.2-13.4,6.4-13.4
		C269.2,324.8,272.4,335.1,272.4,338.3L272.4,338.3z M272.4,338.3"/>
	<path display="none" fill="#30B9D8" d="M266,324.8c3.8,0,6.4,10.2,6.4,13.4c0,3.2-3.2,6.4-6.4,6.4"/>
	<path display="none" fill="#5EE0EA" d="M154.6,369c0,3.2-3.2,6.4-6.4,6.4c-3.8,0-6.4-2.6-6.4-6.4c0-3.2,3.2-13.4,6.4-13.4
		C151.4,355.6,154.6,365.8,154.6,369L154.6,369z M154.6,369"/>
	<path display="none" fill="#30B9D8" d="M148.2,355.6c3.8,0,6.4,10.2,6.4,13.4c0,3.2-3.2,6.4-6.4,6.4"/>
	<path display="none" fill="#5EE0EA" d="M184.1,369c0,3.2-3.2,6.4-6.4,6.4c-3.8,0-6.4-2.6-6.4-6.4c0-3.2,3.2-13.4,6.4-13.4
		C180.9,355.6,184.1,365.8,184.1,369L184.1,369z M184.1,369"/>
	<path display="none" fill="#30B9D8" d="M177.7,355.6c3.8,0,6.4,10.2,6.4,13.4c0,3.2-3.2,6.4-6.4,6.4"/>
	<path display="none" fill="#5EE0EA" d="M213.5,369c0,3.2-3.2,6.4-6.4,6.4c-3.8,0-6.4-2.6-6.4-6.4c0-3.2,3.2-13.4,6.4-13.4
		C210.3,355.6,213.5,365.8,213.5,369L213.5,369z M213.5,369"/>
	<path display="none" fill="#30B9D8" d="M207.1,355.6c3.8,0,6.4,10.2,6.4,13.4c0,3.2-3.2,6.4-6.4,6.4"/>
	<path display="none" fill="#5EE0EA" d="M243,369c0,3.2-3.2,6.4-6.4,6.4c-3.8,0-6.4-2.6-6.4-6.4c0-3.2,3.2-13.4,6.4-13.4
		C239.8,355.6,243,365.8,243,369L243,369z M243,369"/>
	<path display="none" fill="#30B9D8" d="M236.6,355.6c3.8,0,6.4,10.2,6.4,13.4c0,3.2-3.2,6.4-6.4,6.4"/>
	<path display="none" fill="#5EE0EA" d="M272.4,369c0,3.2-3.2,6.4-6.4,6.4c-3.8,0-6.4-2.6-6.4-6.4c0-3.2,3.2-13.4,6.4-13.4
		C269.2,355.6,272.4,365.8,272.4,369L272.4,369z M272.4,369"/>
	<path display="none" fill="#30B9D8" d="M266,355.6c3.8,0,6.4,10.2,6.4,13.4c0,3.2-3.2,6.4-6.4,6.4"/>
	<path display="none" fill="#5EE0EA" d="M154.6,400.4c0,3.2-3.2,6.4-6.4,6.4c-3.8,0-6.4-2.6-6.4-6.4c0-3.2,3.2-13.4,6.4-13.4
		C151.4,386.9,154.6,397.2,154.6,400.4L154.6,400.4z M154.6,400.4"/>
	<path display="none" fill="#30B9D8" d="M148.2,386.9c3.8,0,6.4,10.2,6.4,13.4c0,3.2-3.2,6.4-6.4,6.4"/>
	<path display="none" fill="#5EE0EA" d="M184.1,400.4c0,3.2-3.2,6.4-6.4,6.4c-3.8,0-6.4-2.6-6.4-6.4c0-3.2,3.2-13.4,6.4-13.4
		C180.9,386.9,184.1,397.2,184.1,400.4L184.1,400.4z M184.1,400.4"/>
	<path display="none" fill="#30B9D8" d="M177.7,386.9c3.8,0,6.4,10.2,6.4,13.4c0,3.2-3.2,6.4-6.4,6.4"/>
	<path display="none" fill="#5EE0EA" d="M213.5,400.4c0,3.2-3.2,6.4-6.4,6.4c-3.8,0-6.4-2.6-6.4-6.4c0-3.2,3.2-13.4,6.4-13.4
		C210.3,386.9,213.5,397.2,213.5,400.4L213.5,400.4z M213.5,400.4"/>
	<path display="none" fill="#30B9D8" d="M207.1,386.9c3.8,0,6.4,10.2,6.4,13.4c0,3.2-3.2,6.4-6.4,6.4"/>
	<path display="none" fill="#5EE0EA" d="M243,400.4c0,3.2-3.2,6.4-6.4,6.4c-3.8,0-6.4-2.6-6.4-6.4c0-3.2,3.2-13.4,6.4-13.4
		C239.8,386.9,243,397.2,243,400.4L243,400.4z M243,400.4"/>
	<path display="none" fill="#30B9D8" d="M236.6,386.9c3.8,0,6.4,10.2,6.4,13.4c0,3.2-3.2,6.4-6.4,6.4"/>
	<path display="none" fill="#5EE0EA" d="M272.4,400.4c0,3.2-3.2,6.4-6.4,6.4c-3.8,0-6.4-2.6-6.4-6.4c0-3.2,3.2-13.4,6.4-13.4
		C269.2,386.9,272.4,397.2,272.4,400.4L272.4,400.4z M272.4,400.4"/>
	<path display="none" fill="#30B9D8" d="M266,386.9c3.8,0,6.4,10.2,6.4,13.4c0,3.2-3.2,6.4-6.4,6.4"/>
	<path fill="#DCF9F6" d="M330,196.2c0-44.2-35.8-79.4-79.4-79.4c-30.7,0-57.6,17.9-71,43.5c-3.2-0.6-5.8-1.3-9-1.3
		c-20.5,0-37.8,16.6-37.8,37.8c0,0.6,1.3,1.9,1.3,2.6c-27.5,2.6-41,26.9-41,55.7v3.8c0,30.7,23,55.7,53.8,55.7h126.7
		c30.7,0,56.3-25,56.3-55.7V196.2z M330,196.2"/>
	<path fill="#BDE5E1" d="M330,206.4c0-44.2-35.8-79.4-79.4-79.4c-30.7,0-57.6,17.9-71,43.5c-3.2-0.6-5.8-1.3-9-1.3
		c-20.5,0-37.8,16.6-37.8,37.8c0,0.6,1.3,1.9,1.3,2.6c-27.5,2.6-41,16-41,44.8v3.8c0,30.7,23,55.7,53.8,55.7h126.7
		c30.7,0,56.3-25,56.3-55.7V206.4z M330,206.4"/>
	<path fill="#B1DDD9" d="M144.4,314.6h129.3c30.7,0,56.3-25,56.3-55.7V241c0-14.1-1.3-19.8-1.3-34.6"/>
	<path fill="#DCF9F6" d="M216.1,207.7c-2.6-0.6-5.1-1.3-7.7-1.3c-14.7,0-26.2,12.2-26.2,26.9c0,2.6,0.6,5.1,1.3,7.7
		C185.4,223.1,198.8,209.6,216.1,207.7L216.1,207.7z M216.1,207.7"/>
	<path fill="#DCF9F6" d="M262.2,183.4c-3.2-1.3-6.4-2.6-9.6-3.2c-19.8-3.8-38.4,9.6-42.2,29.4c-0.6,3.2-0.6,7,0,10.2
		C216.7,196.8,238.5,182.1,262.2,183.4L262.2,183.4z M262.2,183.4"/>
	<path fill="#B1DDD9" d="M120.7,251.2c0,1.4-1.1,2.6-2.6,2.6c-1.4,0-2.6-1.1-2.6-2.6c0-1.4,1.1-2.6,2.6-2.6
		C119.6,248.7,120.7,249.8,120.7,251.2L120.7,251.2z M120.7,251.2"/>
	<path fill="#B1DDD9" d="M129,230.8c0,2.1-1.7,3.8-3.8,3.8s-3.8-1.7-3.8-3.8c0-2.1,1.7-3.8,3.8-3.8S129,228.6,129,230.8L129,230.8z
		 M129,230.8"/>
	<path fill="#B1DDD9" d="M172.6,193c0,1.1-0.9,1.9-1.9,1.9c-1.1,0-1.9-0.9-1.9-1.9c0-1.1,0.9-1.9,1.9-1.9
		C171.7,191.1,172.6,191.9,172.6,193L172.6,193z M172.6,193"/>
	<path fill="#DCF9F6" d="M211.6,172.5c0,2.1-1.7,3.8-3.8,3.8c-2.1,0-3.8-1.7-3.8-3.8s1.7-3.8,3.8-3.8
		C209.9,168.7,211.6,170.4,211.6,172.5L211.6,172.5z M211.6,172.5"/>
	<path fill="#DCF9F6" d="M240.4,139.9c0,1.1-0.9,1.9-1.9,1.9c-1.1,0-1.9-0.9-1.9-1.9c0-1.1,0.9-1.9,1.9-1.9
		C239.5,138,240.4,138.8,240.4,139.9L240.4,139.9z M240.4,139.9"/>
	<g>
		<defs>
			<rect id="SVGID_3_" x="10" y="5" width="372" height="402.7"/>
		</defs>
		<clipPath id="SVGID_4_">
			<use xlink:href="#SVGID_3_"  overflow="visible"/>
		</clipPath>
		<path clip-path="url(#SVGID_4_)" fill="#DCF9F6" d="M262.2,146.3c0,3.2-2.6,5.8-5.8,5.8c-3.2,0-5.8-2.6-5.8-5.8
			c0-3.2,2.6-5.8,5.8-5.8C259.6,140.5,262.2,143.1,262.2,146.3L262.2,146.3z M262.2,146.3"/>
		<path clip-path="url(#SVGID_4_)" fill="#B0D1CF" d="M98.3,55.4c0-17.9,5.8-34.6,14.7-48.6c-5.1-0.6-10.2-1.3-16-1.3
			c-48-0.6-87,39-87,87c0,48.6,39,87.7,87,87.7c30.1,0,57-15.4,73-39C129,133.5,98.3,98.3,98.3,55.4L98.3,55.4z M98.3,55.4"/>
		<path clip-path="url(#SVGID_4_)" fill="#7CA09C" d="M98.3,55.4c0-17.9,5.8-34.6,14.7-48.6c-5.1-0.6-10.2-1.3-16-1.3
			c-48-0.6-68.5,39-68.5,87c0,48.6,20.5,87.7,68.5,87.7c30.1,0,57-15.4,73-39C129,133.5,98.3,98.3,98.3,55.4L98.3,55.4z M98.3,55.4"
			/>
	</g>
	<path fill="#DCF9F6" d="M195.6,77.8c0,8.1-0.6,14.7-1.3,14.7c-0.7,0-1.3-6.6-1.3-14.7c0-8.1,0.6-14.7,1.3-14.7
		C195,63.1,195.6,69.7,195.6,77.8L195.6,77.8z M195.6,77.8"/>
	<path fill="#DCF9F6" d="M209,77.8c0,0.7-6.6,1.3-14.7,1.3s-14.7-0.6-14.7-1.3c0-0.7,6.6-1.3,14.7-1.3S209,77.1,209,77.8L209,77.8z
		 M209,77.8"/>
	<path fill="#DCF9F6" d="M289.7,94.4c0,3.5-0.3,6.4-0.6,6.4c-0.4,0-0.6-2.9-0.6-6.4c0-3.5,0.3-6.4,0.6-6.4
		C289.4,88,289.7,90.9,289.7,94.4L289.7,94.4z M289.7,94.4"/>
	<path fill="#DCF9F6" d="M295.4,94.4c0,0.4-2.9,0.6-6.4,0.6c-3.5,0-6.4-0.3-6.4-0.6c0-0.4,2.9-0.6,6.4-0.6
		C292.6,93.8,295.4,94.1,295.4,94.4L295.4,94.4z M295.4,94.4"/>
	<path fill="#DCF9F6" d="M153.9,102.1c0.2-0.3,2.7,1.8,5.5,4.5c2.8,2.7,4.8,5.2,4.6,5.4c-0.3,0.3-2.7-1.8-5.5-4.5
		C155.7,104.8,153.7,102.4,153.9,102.1L153.9,102.1z M153.9,102.1"/>
	<path fill="#DCF9F6" d="M164.1,102.5c0.2,0.3-1.8,2.7-4.6,5.4c-2.8,2.7-5.2,4.7-5.5,4.5c-0.3-0.2,1.8-2.7,4.6-5.4
		C161.4,104.3,163.9,102.3,164.1,102.5L164.1,102.5z M164.1,102.5"/>
	<path fill="#DCF9F6" d="M247.7,85.9c0.3,0.2-0.5,1.5-1.8,2.7c-1.2,1.3-2.4,2.1-2.7,1.8c-0.3-0.2,0.5-1.5,1.8-2.7
		C246.2,86.5,247.5,85.6,247.7,85.9L247.7,85.9z M247.7,85.9"/>
	<path fill="#DCF9F6" d="M244.9,88c-1.3-1.3-2.6-2.6-1.9-2.6C243,85.5,244.2,86.1,244.9,88c1.9,0.6,2.6,1.9,2.6,1.9
		S246.2,90,244.9,88L244.9,88z M244.9,88"/>
</g>
</svg>
