<?xml version="1.0" encoding="utf-8"?>
<!-- Generator: Adobe Illustrator 20.0.0, SVG Export Plug-In . SVG Version: 6.00 Build 0)  -->
<svg version="1.1" id="Layer_1" xmlns="http://www.w3.org/2000/svg" xmlns:xlink="http://www.w3.org/1999/xlink" x="0px" y="0px"
	 viewBox="0 0 400.2 400.2" enable-background="new 0 0 400.2 400.2" xml:space="preserve">
<g>
	<path fill="#FCD21D" d="M381.6,215c0,93.7-75.9,169.6-169.6,169.6c-93.7,0-169.6-75.9-169.6-169.6S118.4,45.4,212,45.4
		C305.7,45.4,381.6,121.3,381.6,215L381.6,215z M381.6,215"/>
	<path fill="#F9B01E" d="M92.4,95.3c65.9-65.9,173.4-65.9,240,0c65.9,65.9,65.9,173.4,0,240"/>
	<path fill="#C5EAE7" d="M326.6,124.7c0-57.6-46.7-104.3-104.3-104.3c-40.3,0-75.5,23-92.8,57.6c-3.8-0.6-7.7-1.3-11.5-1.3
		c-27.5,0-49.3,21.8-49.3,49.3v3.2c-35.8,3.8-55,34.6-55,73v5.1c0,40.3,32.6,71.7,73.6,71.7h166.4c40.3,0,73.6-31.4,73.6-72.3v-23
		C327.2,165,326.6,143.9,326.6,124.7L326.6,124.7z M326.6,124.7"/>
	<path fill="#98D3CD" d="M326.6,138.8c0-57.6-46.7-104.3-104.3-104.3c-40.3,0-75.5,23-92.8,57.6c-3.8-0.6-7.7-1.3-11.5-1.3
		c-27.5,0-49.3,21.8-49.3,49.3v3.2c-35.8,3.2-55,20.5-55,58.9v5.1c0,40.3,32.6,71.7,73.6,71.7h166.4c40.3,0,73.6-31.4,73.6-72.3v-23
		C327.2,165,326.6,158,326.6,138.8L326.6,138.8z M326.6,138.8"/>
	<path fill="#8BCCC2" d="M84,279h169c41,0,74.2-31.4,74.2-72.3v-23c0-18.6-0.6-25.6-0.6-44.8"/>
	<path fill="#C5EAE7" d="M177.5,140.1c-3.2-0.6-6.4-1.3-9.6-1.3c-19.2,0-34.6,15.4-34.6,34.6c0,3.2,0.6,6.4,1.3,9.6
		C137.2,160.6,155.1,142.6,177.5,140.1L177.5,140.1z M177.5,140.1"/>
	<path fill="#C5EAE7" d="M237.6,108.1c-3.8-1.9-8.3-3.8-12.8-4.5c-25.6-4.5-50.6,12.2-55.7,38.4c-0.6,4.5-0.6,9,0,13.4
		C178.8,126,206.9,106.2,237.6,108.1L237.6,108.1z M237.6,108.1"/>
	<path fill="#C5EAE7" d="M52,196.4c0,1.8-1.4,3.2-3.2,3.2c-1.8,0-3.2-1.4-3.2-3.2s1.4-3.2,3.2-3.2C50.6,193.2,52,194.6,52,196.4
		L52,196.4z M52,196.4"/>
	<path fill="#C5EAE7" d="M62.3,170.2c0,2.5-2,4.5-4.5,4.5c-2.5,0-4.5-2-4.5-4.5c0-2.5,2-4.5,4.5-4.5
		C60.3,165.7,62.3,167.7,62.3,170.2L62.3,170.2z M62.3,170.2"/>
	<path fill="#C5EAE7" d="M119.9,120.9c0,1.1-0.9,1.9-1.9,1.9c-1.1,0-1.9-0.9-1.9-1.9c0-1.1,0.9-1.9,1.9-1.9
		C119,119,119.9,119.8,119.9,120.9L119.9,120.9z M119.9,120.9"/>
	<path fill="#C5EAE7" d="M171.7,94c0,2.8-2.3,5.1-5.1,5.1s-5.1-2.3-5.1-5.1c0-2.8,2.3-5.1,5.1-5.1S171.7,91.2,171.7,94L171.7,94z
		 M171.7,94"/>
	<path fill="#C5EAE7" d="M209.5,51.8c0,1.4-1.1,2.6-2.6,2.6c-1.4,0-2.6-1.1-2.6-2.6c0-1.4,1.1-2.6,2.6-2.6
		C208.3,49.2,209.5,50.3,209.5,51.8L209.5,51.8z M209.5,51.8"/>
	<path fill="#C5EAE7" d="M238.3,59.4c0,4.2-3.4,7.7-7.7,7.7c-4.2,0-7.7-3.4-7.7-7.7s3.4-7.7,7.7-7.7
		C234.8,51.8,238.3,55.2,238.3,59.4L238.3,59.4z M238.3,59.4"/>
	<path display="none" fill="#C5EAE7" d="M187.7,274.5c0-40.3,33.9-73.6,74.2-73.6c28.8,0,53.8,16.6,65.9,40.3
		c2.6-0.6,5.8-1.3,8.3-1.3c19.2,0,35.2,15.4,35.2,34.6v2.6c25.6,2.6,39,25,39,51.8v3.2c0,28.8-23,55-51.8,55H240.8
		c-28.8,0-54.4-26.2-54.4-55v-16.6C186.4,303.3,187.7,288.6,187.7,274.5L187.7,274.5z M187.7,274.5"/>
	<path display="none" fill="#98D3CD" d="M187.7,284.7c0-40.3,33.9-73.6,74.2-73.6c28.8,0,53.8,16.6,65.9,40.3
		c2.6-0.6,5.8-1.3,8.3-1.3c19.2,0,35.2,15.4,35.2,34.6v2.6c25.6,2.6,39,14.7,39,41.6v3.2c0,28.8-23,55-51.8,55H240.8
		c-28.8,0-54.4-26.2-54.4-55v-16.6C186.4,303.3,187.7,298.2,187.7,284.7L187.7,284.7z M187.7,284.7"/>
	<path display="none" fill="#8BCCC2" d="M359.2,387.8H240.8c-28.8,0-54.4-26.2-54.4-55v-23c0-13.4,1.9-16.6,1.9-30.1"/>
	<path display="none" fill="#C5EAE7" d="M294.6,285.4c1.9-0.6,4.5-1.3,7-1.3c13.4,0,24.3,10.9,24.3,24.3c0,2.6-0.6,4.5-1.3,7
		C323.4,300.1,310.6,287.3,294.6,285.4L294.6,285.4z M294.6,285.4"/>
	<path display="none" fill="#C5EAE7" d="M251.7,263c2.6-1.3,5.8-2.6,9-3.2c18.6-3.2,35.8,9,39,26.9c0.6,3.2,0.6,6.4,0,9.6
		C294,275.8,274.1,261.7,251.7,263L251.7,263z M251.7,263"/>
	<path display="none" fill="#C5EAE7" d="M388,325.7c0,1.4-1.1,2.6-2.6,2.6c-1.4,0-2.6-1.1-2.6-2.6c0-1.4,1.1-2.6,2.6-2.6
		C386.9,323.1,388,324.3,388,325.7L388,325.7z M388,325.7"/>
	<path display="none" fill="#C5EAE7" d="M382.3,307.1c0,1.8-1.4,3.2-3.2,3.2c-1.8,0-3.2-1.4-3.2-3.2c0-1.8,1.4-3.2,3.2-3.2
		C380.8,303.9,382.3,305.4,382.3,307.1L382.3,307.1z M382.3,307.1"/>
	<path display="none" fill="#C5EAE7" d="M338.1,271.9c0,0.7-0.6,1.3-1.3,1.3c-0.7,0-1.3-0.6-1.3-1.3c0-0.7,0.6-1.3,1.3-1.3
		C337.5,270.6,338.1,271.2,338.1,271.9L338.1,271.9z M338.1,271.9"/>
	<path display="none" fill="#C5EAE7" d="M306.1,253.4c0,2.1-1.7,3.8-3.8,3.8s-3.8-1.7-3.8-3.8c0-2.1,1.7-3.8,3.8-3.8
		S306.1,251.2,306.1,253.4L306.1,253.4z M306.1,253.4"/>
	<path display="none" fill="#C5EAE7" d="M275.4,223.3c0,1.1-0.9,1.9-1.9,1.9c-1.1,0-1.9-0.9-1.9-1.9c0-1.1,0.9-1.9,1.9-1.9
		C274.5,221.4,275.4,222.2,275.4,223.3L275.4,223.3z M275.4,223.3"/>
	<path display="none" fill="#C5EAE7" d="M262.6,228.4c0,3.2-2.6,5.8-5.8,5.8c-3.2,0-5.8-2.6-5.8-5.8c0-3.2,2.6-5.8,5.8-5.8
		C260,222.6,262.6,225.2,262.6,228.4L262.6,228.4z M262.6,228.4"/>
</g>
</svg>
