<?xml version="1.0" encoding="utf-8"?>
<!-- Generator: Adobe Illustrator 20.0.0, SVG Export Plug-In . SVG Version: 6.00 Build 0)  -->
<svg version="1.1" id="Layer_1" xmlns="http://www.w3.org/2000/svg" xmlns:xlink="http://www.w3.org/1999/xlink" x="0px" y="0px"
	 viewBox="0 0 404 404" enable-background="new 0 0 404 404" xml:space="preserve">
<g>
	<path fill="#063F66" d="M360.9,204.6c0,95.8-77.7,173.4-173.4,173.4C91.7,378,14,300.3,14,204.6c0-95.8,77.7-173.4,173.4-173.4
		C283.2,31.1,360.9,108.8,360.9,204.6L360.9,204.6z M360.9,204.6"/>
	<path fill="#022730" d="M64.6,82.3c67.8-67.8,177.3-67.8,245.1,0s67.8,177.3,0,245.1"/>
	<rect x="14" y="6" fill="none" width="346.8" height="401.8"/>
	<g>
		<path fill="#A3B5B1" d="M360.2,112.4C360.2,53.5,312.9,6.2,254,6.2c-41.6,0-77.4,23.7-94.7,58.9c-3.8-0.6-7.7-1.3-12.2-1.3
			c-27.5,0-50.6,22.4-50.6,50.6v3.2c-36.5,3.2-56.3,34.6-56.3,73.6v5.1c0,41.6,33.9,73.6,75.5,73.6H286c41,0,74.2-32,74.2-73.6
			V112.4z M360.2,112.4"/>
		<path fill="#7F938F" d="M360.2,126.5c0-58.9-47.4-106.2-106.2-106.2c-41.6,0-77.4,23.7-94.7,58.9c-3.8-0.6-7.7-1.3-12.2-1.3
			c-27.5,0-50.6,22.4-50.6,50.6v3.2c-36.5,3.2-56.3,20.5-56.3,59.5v5.1c0,41.6,33.9,73.6,75.5,73.6H286c41,0,74.2-32,74.2-73.6
			V126.5z M360.2,126.5"/>
		<path fill="#788785" d="M117,269.8h168.3c41.6,0,74.9-32,74.9-73.6v-76.2"/>
		<path fill="#A3B5B1" d="M207.9,127.8c-3.2-0.6-6.4-1.3-10.2-1.3c-19.8,0-35.8,16-35.8,35.8c0,3.2,0.6,7,1.3,10.2
			C167,148.9,184.9,130.3,207.9,127.8L207.9,127.8z M207.9,127.8"/>
		<path fill="#A3B5B1" d="M269.4,95.1c-3.8-1.9-8.3-3.8-12.8-4.5c-26.2-5.1-51.8,12.8-57,39c-0.6,4.5-0.6,9,0,14.1
			C209.2,113,238,93.2,269.4,95.1L269.4,95.1z M269.4,95.1"/>
		<path fill="#A3B5B1" d="M80.6,186c0,2.1-1.7,3.8-3.8,3.8c-2.1,0-3.8-1.7-3.8-3.8s1.7-3.8,3.8-3.8C78.8,182.2,80.6,183.9,80.6,186
			L80.6,186z M80.6,186"/>
		<path fill="#A3B5B1" d="M90.8,158.5c0,2.8-2.3,5.1-5.1,5.1c-2.8,0-5.1-2.3-5.1-5.1c0-2.8,2.3-5.1,5.1-5.1
			C88.5,153.4,90.8,155.7,90.8,158.5L90.8,158.5z M90.8,158.5"/>
		<path fill="#A3B5B1" d="M149,107.9c0,1.1-0.9,1.9-1.9,1.9c-1.1,0-1.9-0.9-1.9-1.9c0-1.1,0.9-1.9,1.9-1.9
			C148.2,106,149,106.9,149,107.9L149,107.9z M149,107.9"/>
		<path fill="#A3B5B1" d="M201.5,81c0,2.8-2.3,5.1-5.1,5.1c-2.8,0-5.1-2.3-5.1-5.1c0-2.8,2.3-5.1,5.1-5.1
			C199.2,75.9,201.5,78.2,201.5,81L201.5,81z M201.5,81"/>
		<path fill="#A3B5B1" d="M240.6,37.5c0,1.4-1.1,2.6-2.6,2.6s-2.6-1.1-2.6-2.6c0-1.4,1.1-2.6,2.6-2.6S240.6,36.1,240.6,37.5
			L240.6,37.5z M240.6,37.5"/>
		<path fill="#A3B5B1" d="M270,45.2c0,4.2-3.4,7.7-7.7,7.7c-4.2,0-7.7-3.4-7.7-7.7s3.4-7.7,7.7-7.7C266.6,37.5,270,41,270,45.2
			L270,45.2z M270,45.2"/>
	</g>
	<g>
		<path fill="#A3B5B1" d="M26.1,319.6c0,26,20.8,45.9,46.3,45.9h106.2c26,0,47.1-20,47.1-45.9v-3.2c0-24.4-12.4-43.9-35.1-45.9v-2
			c0-17.6-14.4-31.5-31.6-31.5c-2.8,0-5.2,0.4-7.6,0.8c-10.8-22-33.1-36.7-59.1-36.7c-36.7,0-66.3,29.6-66.3,66.3V319.6z
			 M26.1,267.3"/>
		<path fill="#7F938F" d="M26.1,319.6c0,26,20.8,45.9,46.3,45.9h106.2c26,0,47.1-20,47.1-45.9v-3.2c0-24.4-12.4-35.1-35.1-37.1v-2
			c0-17.6-14.4-31.5-31.6-31.5c-2.8,0-5.2,0.4-7.6,0.8c-10.8-22-33.1-36.7-59.1-36.7c-36.7,0-66.3,29.6-66.3,66.3V319.6z
			 M26.1,276.1"/>
		<path fill="#788785" d="M177.9,365.5h-105c-26,0-46.7-20-46.7-45.9v-47.5"/>
		<path fill="#A3B5B1" d="M121.2,276.9c14.4,1.6,25.6,13.2,28,28c0.4-2,0.8-4.4,0.8-6.4c0-12.4-10-22.4-22.4-22.4
			C125.2,276.1,123.2,276.5,121.2,276.9L121.2,276.9z M121.2,276.9"/>
		<path fill="#A3B5B1" d="M82.9,256.5c19.6-1.2,37.5,11.2,43.5,30.4c0.4-3.2,0.4-6,0-8.8c-3.2-16.4-19.2-27.6-35.5-24.4
			C88,254.1,85.3,255.3,82.9,256.5L82.9,256.5z M82.9,256.5"/>
		<path fill="#A3B5B1" d="M200.7,313.2c0-1.3,1.1-2.4,2.4-2.4c1.3,0,2.4,1.1,2.4,2.4c0,1.3-1.1,2.4-2.4,2.4
			C201.7,315.6,200.7,314.5,200.7,313.2L200.7,313.2z M200.7,313.2"/>
		<path fill="#A3B5B1" d="M194.3,296c0-1.8,1.4-3.2,3.2-3.2c1.8,0,3.2,1.4,3.2,3.2s-1.4,3.2-3.2,3.2
			C195.7,299.2,194.3,297.8,194.3,296L194.3,296z M194.3,296"/>
		<path fill="#A3B5B1" d="M157.9,264.5c0-0.7,0.5-1.2,1.2-1.2c0.7,0,1.2,0.5,1.2,1.2c0,0.7-0.5,1.2-1.2,1.2
			C158.5,265.7,157.9,265.1,157.9,264.5L157.9,264.5z M157.9,264.5"/>
		<path fill="#A3B5B1" d="M125.2,247.7c0-1.8,1.4-3.2,3.2-3.2c1.8,0,3.2,1.4,3.2,3.2c0,1.8-1.4,3.2-3.2,3.2
			C126.6,250.9,125.2,249.5,125.2,247.7L125.2,247.7z M125.2,247.7"/>
		<path fill="#A3B5B1" d="M100.8,220.5c0-0.9,0.7-1.6,1.6-1.6c0.9,0,1.6,0.7,1.6,1.6c0,0.9-0.7,1.6-1.6,1.6
			C101.5,222.1,100.8,221.4,100.8,220.5L100.8,220.5z M100.8,220.5"/>
		<path fill="#A3B5B1" d="M82.5,225.3c0-2.6,2.1-4.8,4.8-4.8c2.6,0,4.8,2.1,4.8,4.8c0,2.6-2.1,4.8-4.8,4.8
			C84.6,230.1,82.5,228,82.5,225.3L82.5,225.3z M82.5,225.3"/>
	</g>
	<path display="none" fill="#FFAA00" d="M253.4,276.2h-62.7l-37.8,57.6h25.6l-31.4,73l103.7-92.2h-25.6L253.4,276.2z M253.4,276.2"
		/>
	<path display="none" fill="#FFBC00" d="M253.4,276.2l-49.9,39l-50.6,18.6h41l-46.7,73l103.7-92.2h-25.6L253.4,276.2z M253.4,276.2"
		/>
	<path display="none" fill="#FFF200" d="M225.8,276.2h-35.2l-37.8,57.6h57l-62.7,73l103.7-92.2h-55.7L225.8,276.2z M225.8,276.2"/>
	<path display="none" fill="#FFDA00" d="M225.8,276.2l-28.2,6.4l-44.8,51.2h57l-62.7,73l103.7-92.2l-63.4,8.3L225.8,276.2z
		 M225.8,276.2"/>
	<path display="none" fill="#FFAA00" d="M296.2,276.2h-30.7L247,301.8h12.2L244.4,339l50.6-43.5h-12.8L296.2,276.2z M296.2,276.2"/>
	<path display="none" fill="#FFBC00" d="M296.2,276.2l-24.3,17.9l-25,7.7h20.5l-23,37.1l50.6-43.5h-12.8L296.2,276.2z M296.2,276.2"
		/>
	<path display="none" fill="#FFF200" d="M282.8,276.2h-17.3L247,301.8h28.2L244.4,339l50.6-43.5h-26.9L282.8,276.2z M282.8,276.2"/>
	<path display="none" fill="#FFDA00" d="M282.8,276.2l-13.4,1.9L247,301.8h28.2L244.4,339l50.6-43.5l-31.4,3.8L282.8,276.2z
		 M282.8,276.2"/>
</g>
</svg>
