<?xml version="1.0" encoding="iso-8859-1"?>
<!-- Generator: Adobe Illustrator 19.0.0, SVG Export Plug-In . SVG Version: 6.00 Build 0)  -->
<svg version="1.1" id="Layer_1" xmlns="http://www.w3.org/2000/svg" xmlns:xlink="http://www.w3.org/1999/xlink" x="0px" y="0px"
	 viewBox="0 0 493.6 493.6" style="enable-background:new 0 0 493.6 493.6;" xml:space="preserve">
<circle style="fill:#C6E0DE;" cx="248" cy="236.4" r="216.8"/>
<path style="fill:#B6D3D2;" d="M94.4,83.6c84.8-84.8,222.4-84.8,307.2,0s84.8,221.6,0,306.4"/>
<path style="fill:#1BAA0C;" d="M493.6,366.8c-43.2-88-136.8-156-245.6-156s-202.4,68-245.6,156H493.6z"/>
<path style="fill:#068E50;" d="M0,366.8h493.6c-43.2-88-138.4-156-247.2-156"/>
<path style="fill:#FF9100;" d="M384.8,366.8c-24-88-76-156-136.8-156s-112.8,68-136.8,156H384.8z"/>
<path style="fill:#E04F07;" d="M112,366.8h272.8c-24-88-76-156-136-156"/>
<path style="fill:#1BAA0C;" d="M284,366.8c-6.4-88-20-156-36-156s-29.6,68-36,156H284z"/>
<path style="fill:#068E50;" d="M216,366.8h68c-6.4-88-18.4-156-33.6-156"/>
<rect x="232" y="382.8" style="fill:#00233F;" width="24" height="104"/>
<path style="fill:#5EE0EA;" d="M56,82c0,4.8-4,9.6-9.6,9.6S36,86.8,36,82s4-20.8,9.6-20.8S56,76.4,56,82z"/>
<path style="fill:#30B9D8;" d="M46.4,61.2C52,61.2,56,76.4,56,82c0,4.8-4,9.6-9.6,9.6"/>
<path style="fill:#5EE0EA;" d="M100.8,82c0,4.8-4,9.6-9.6,9.6s-9.6-4-9.6-9.6c0-4.8,4-20.8,9.6-20.8C96,61.2,100.8,76.4,100.8,82z"
	/>
<path style="fill:#30B9D8;" d="M91.2,61.2c5.6,0,9.6,15.2,9.6,20.8c0,4.8-4,9.6-9.6,9.6"/>
<path style="fill:#5EE0EA;" d="M145.6,82c0,4.8-4,9.6-9.6,9.6s-9.6-4-9.6-9.6c0-4.8,4-20.8,9.6-20.8C140.8,61.2,145.6,76.4,145.6,82
	z"/>
<path style="fill:#30B9D8;" d="M136,61.2c5.6,0,9.6,15.2,9.6,20.8c0,4.8-4,9.6-9.6,9.6"/>
<path style="fill:#5EE0EA;" d="M190.4,82c0,4.8-4,9.6-9.6,9.6s-9.6-4-9.6-9.6c0-4.8,4-20.8,9.6-20.8C185.6,61.2,190.4,76.4,190.4,82
	z"/>
<path style="fill:#30B9D8;" d="M180.8,61.2c5.6,0,9.6,15.2,9.6,20.8c0,4.8-4,9.6-9.6,9.6"/>
<path style="fill:#5EE0EA;" d="M235.2,82c0,4.8-4,9.6-9.6,9.6s-9.6-4-9.6-9.6c0-4.8,4.8-20.8,9.6-20.8
	C230.4,61.2,235.2,76.4,235.2,82z"/>
<path style="fill:#30B9D8;" d="M225.6,61.2c5.6,0,9.6,15.2,9.6,20.8c0,4.8-4,9.6-9.6,9.6"/>
<path style="fill:#5EE0EA;" d="M56,128.4c0,4.8-4,9.6-9.6,9.6s-9.6-4-9.6-9.6c0-4.8,4-20.8,9.6-20.8S56,123.6,56,128.4z"/>
<path style="fill:#30B9D8;" d="M46.4,108.4c5.6,0,9.6,15.2,9.6,20.8c0,4.8-4,9.6-9.6,9.6"/>
<path style="fill:#5EE0EA;" d="M100.8,128.4c0,4.8-4,9.6-9.6,9.6s-9.6-4-9.6-9.6c0-4.8,4-20.8,9.6-20.8
	C96,108.4,100.8,123.6,100.8,128.4z"/>
<path style="fill:#30B9D8;" d="M91.2,108.4c5.6,0,9.6,15.2,9.6,20.8c0,4.8-4,9.6-9.6,9.6"/>
<path style="fill:#5EE0EA;" d="M145.6,128.4c0,4.8-4,9.6-9.6,9.6s-9.6-4-9.6-9.6c0-4.8,4-20.8,9.6-20.8
	C140.8,108.4,145.6,123.6,145.6,128.4z"/>
<path style="fill:#30B9D8;" d="M136,108.4c5.6,0,9.6,15.2,9.6,20.8c0,4.8-4,9.6-9.6,9.6"/>
<path style="fill:#5EE0EA;" d="M190.4,128.4c0,4.8-4,9.6-9.6,9.6s-9.6-4-9.6-9.6c0-4.8,4-20.8,9.6-20.8
	C185.6,108.4,190.4,123.6,190.4,128.4z"/>
<path style="fill:#30B9D8;" d="M180.8,108.4c5.6,0,9.6,15.2,9.6,20.8c0,4.8-4,9.6-9.6,9.6"/>
<path style="fill:#5EE0EA;" d="M235.2,128.4c0,4.8-4,9.6-9.6,9.6s-9.6-4-9.6-9.6c0-4.8,4.8-20.8,9.6-20.8
	C230.4,108.4,235.2,123.6,235.2,128.4z"/>
<path style="fill:#30B9D8;" d="M225.6,108.4c5.6,0,9.6,15.2,9.6,20.8c0,4.8-4,9.6-9.6,9.6"/>
<path style="fill:#5EE0EA;" d="M56,175.6c0,4.8-4,9.6-9.6,9.6s-9.6-4-9.6-9.6s4-20.8,9.6-20.8S56,170.8,56,175.6z"/>
<path style="fill:#30B9D8;" d="M46.4,155.6c5.6,0,9.6,15.2,9.6,20.8s-4,9.6-9.6,9.6"/>
<path style="fill:#5EE0EA;" d="M100.8,175.6c0,4.8-4,9.6-9.6,9.6s-9.6-4-9.6-9.6s4-20.8,9.6-20.8C96,155.6,100.8,170.8,100.8,175.6z
	"/>
<path style="fill:#30B9D8;" d="M91.2,155.6c5.6,0,9.6,15.2,9.6,20.8s-4,9.6-9.6,9.6"/>
<path style="fill:#5EE0EA;" d="M145.6,175.6c0,4.8-4,9.6-9.6,9.6s-9.6-4-9.6-9.6s4-20.8,9.6-20.8
	C140.8,155.6,145.6,170.8,145.6,175.6z"/>
<path style="fill:#30B9D8;" d="M136,155.6c5.6,0,9.6,15.2,9.6,20.8s-4,9.6-9.6,9.6"/>
<path style="fill:#5EE0EA;" d="M190.4,175.6c0,4.8-4,9.6-9.6,9.6s-9.6-4-9.6-9.6s4-20.8,9.6-20.8
	C185.6,155.6,190.4,170.8,190.4,175.6z"/>
<path style="fill:#30B9D8;" d="M180.8,155.6c5.6,0,9.6,15.2,9.6,20.8s-4,9.6-9.6,9.6"/>
<path style="fill:#5EE0EA;" d="M235.2,175.6c0,4.8-4,9.6-9.6,9.6s-9.6-4-9.6-9.6s4.8-20.8,9.6-20.8
	C230.4,155.6,235.2,170.8,235.2,175.6z"/>
<path style="fill:#30B9D8;" d="M225.6,155.6c5.6,0,9.6,15.2,9.6,20.8s-4,9.6-9.6,9.6"/>
<path style="fill:#5EE0EA;" d="M280.8,82c0,4.8-4,9.6-9.6,9.6s-9.6-4-9.6-9.6c0-4.8,4-20.8,9.6-20.8C276,61.2,280.8,76.4,280.8,82z"
	/>
<path style="fill:#30B9D8;" d="M270.4,61.2c5.6,0,9.6,15.2,9.6,20.8c0,4.8-4,9.6-9.6,9.6"/>
<path style="fill:#5EE0EA;" d="M325.6,82c0,4.8-4,9.6-9.6,9.6s-9.6-4-9.6-9.6c0-4.8,4-20.8,9.6-20.8S325.6,76.4,325.6,82z"/>
<path style="fill:#30B9D8;" d="M315.2,61.2c5.6,0,9.6,15.2,9.6,20.8c0,4.8-4,9.6-9.6,9.6"/>
<path style="fill:#5EE0EA;" d="M370.4,82c0,4.8-4,9.6-9.6,9.6s-9.6-4-9.6-9.6c0-4.8,4.8-20.8,9.6-20.8S370.4,76.4,370.4,82z"/>
<path style="fill:#30B9D8;" d="M360,61.2c5.6,0,9.6,15.2,9.6,20.8c0,4.8-4,9.6-9.6,9.6"/>
<path style="fill:#5EE0EA;" d="M415.2,82c0,4.8-4.8,9.6-9.6,9.6c-5.6,0-9.6-4-9.6-9.6c0-4.8,4-20.8,9.6-20.8
	C410.4,61.2,415.2,76.4,415.2,82z"/>
<path style="fill:#30B9D8;" d="M404.8,61.2c5.6,0,9.6,15.2,9.6,20.8c0,4.8-4.8,9.6-9.6,9.6"/>
<path style="fill:#5EE0EA;" d="M460,82c0,4.8-4,9.6-9.6,9.6S440,86.8,440,82s4-20.8,9.6-20.8S460,76.4,460,82z"/>
<path style="fill:#30B9D8;" d="M449.6,61.2c5.6,0,9.6,15.2,9.6,20.8c0,4.8-4,9.6-9.6,9.6"/>
<path style="fill:#5EE0EA;" d="M280.8,128.4c0,4.8-4,9.6-9.6,9.6s-9.6-4-9.6-9.6c0-4.8,4-20.8,9.6-20.8
	C276,108.4,280.8,123.6,280.8,128.4z"/>
<path style="fill:#30B9D8;" d="M270.4,108.4c5.6,0,9.6,15.2,9.6,20.8c0,4.8-4,9.6-9.6,9.6"/>
<path style="fill:#5EE0EA;" d="M325.6,128.4c0,4.8-4,9.6-9.6,9.6s-9.6-4-9.6-9.6c0-4.8,4-20.8,9.6-20.8S325.6,123.6,325.6,128.4z"/>
<path style="fill:#30B9D8;" d="M315.2,108.4c5.6,0,9.6,15.2,9.6,20.8c0,4.8-4,9.6-9.6,9.6"/>
<path style="fill:#5EE0EA;" d="M370.4,128.4c0,4.8-4,9.6-9.6,9.6s-9.6-4-9.6-9.6c0-4.8,4.8-20.8,9.6-20.8S370.4,123.6,370.4,128.4z"
	/>
<path style="fill:#30B9D8;" d="M360,108.4c5.6,0,9.6,15.2,9.6,20.8c0,4.8-4,9.6-9.6,9.6"/>
<path style="fill:#5EE0EA;" d="M415.2,128.4c0,4.8-4.8,9.6-9.6,9.6c-5.6,0-9.6-4-9.6-9.6c0-4.8,4-20.8,9.6-20.8
	C410.4,108.4,415.2,123.6,415.2,128.4z"/>
<path style="fill:#30B9D8;" d="M404.8,108.4c5.6,0,9.6,15.2,9.6,20.8c0,4.8-4.8,9.6-9.6,9.6"/>
<path style="fill:#5EE0EA;" d="M460,128.4c0,4.8-4,9.6-9.6,9.6s-10.4-4-10.4-9.6c0-4.8,4-20.8,9.6-20.8S460,123.6,460,128.4z"/>
<path style="fill:#30B9D8;" d="M449.6,108.4c5.6,0,9.6,15.2,9.6,20.8c0,4.8-4,9.6-9.6,9.6"/>
<path style="fill:#5EE0EA;" d="M280.8,175.6c0,4.8-4,9.6-9.6,9.6s-9.6-4-9.6-9.6s4-20.8,9.6-20.8C276,155.6,280.8,170.8,280.8,175.6
	z"/>
<path style="fill:#30B9D8;" d="M270.4,155.6c5.6,0,9.6,15.2,9.6,20.8s-4,9.6-9.6,9.6"/>
<path style="fill:#5EE0EA;" d="M325.6,175.6c0,4.8-4,9.6-9.6,9.6s-9.6-4-9.6-9.6s4-20.8,9.6-20.8S325.6,170.8,325.6,175.6z"/>
<path style="fill:#30B9D8;" d="M315.2,155.6c5.6,0,9.6,15.2,9.6,20.8s-4,9.6-9.6,9.6"/>
<path style="fill:#5EE0EA;" d="M370.4,175.6c0,4.8-4,9.6-9.6,9.6s-9.6-4-9.6-9.6s4.8-20.8,9.6-20.8S370.4,170.8,370.4,175.6z"/>
<path style="fill:#30B9D8;" d="M360,155.6c5.6,0,9.6,15.2,9.6,20.8s-4,9.6-9.6,9.6"/>
<path style="fill:#5EE0EA;" d="M415.2,175.6c0,4.8-4.8,9.6-9.6,9.6c-5.6,0-9.6-4-9.6-9.6s4-20.8,9.6-20.8
	C410.4,155.6,415.2,170.8,415.2,175.6z"/>
<path style="fill:#30B9D8;" d="M404.8,155.6c5.6,0,9.6,15.2,9.6,20.8s-4.8,9.6-9.6,9.6"/>
<path style="fill:#5EE0EA;" d="M460,175.6c0,4.8-4,9.6-9.6,9.6s-10.4-4-10.4-9.6s4-20.8,9.6-20.8S460,170.8,460,175.6z"/>
<path style="fill:#30B9D8;" d="M449.6,155.6c5.6,0,9.6,15.2,9.6,20.8s-4,9.6-9.6,9.6"/>
<path style="fill:#5EE0EA;" d="M56,27.6c0,4.8-4,9.6-9.6,9.6S36,33.2,36,27.6s4-20.8,9.6-20.8S56,22.8,56,27.6z"/>
<path style="fill:#30B9D8;" d="M46.4,7.6c4.8,0,9.6,15.2,9.6,20s-4.8,9.6-9.6,9.6"/>
<path style="fill:#5EE0EA;" d="M100.8,27.6c0,4.8-4,9.6-9.6,9.6s-9.6-4-9.6-9.6s4-20.8,9.6-20.8C96,7.6,100.8,22.8,100.8,27.6z"/>
<path style="fill:#30B9D8;" d="M91.2,7.6c5.6,0,9.6,15.2,9.6,20.8s-4.8,8.8-9.6,8.8"/>
<path style="fill:#5EE0EA;" d="M145.6,27.6c0,4.8-4,9.6-9.6,9.6s-9.6-4-9.6-9.6s4-20.8,9.6-20.8C140.8,7.6,145.6,22.8,145.6,27.6z"
	/>
<path style="fill:#30B9D8;" d="M136,7.6c5.6,0,9.6,15.2,9.6,20.8s-4.8,8.8-9.6,8.8"/>
<path style="fill:#5EE0EA;" d="M190.4,27.6c0,4.8-4,9.6-9.6,9.6s-9.6-4-9.6-9.6s4-20.8,9.6-20.8C185.6,7.6,190.4,22.8,190.4,27.6z"
	/>
<path style="fill:#30B9D8;" d="M180.8,7.6c5.6,0,9.6,15.2,9.6,20.8s-4,9.6-9.6,9.6"/>
<path style="fill:#5EE0EA;" d="M235.2,27.6c0,4.8-4,9.6-9.6,9.6s-9.6-4-9.6-9.6s4.8-20.8,9.6-20.8C230.4,7.6,235.2,22.8,235.2,27.6z
	"/>
<path style="fill:#30B9D8;" d="M225.6,7.6c5.6,0,9.6,15.2,9.6,20.8s-4,9.6-9.6,9.6"/>
<path style="fill:#5EE0EA;" d="M280.8,27.6c0,4.8-4,9.6-9.6,9.6s-9.6-4-9.6-9.6s4-20.8,9.6-20.8C276,7.6,280.8,22.8,280.8,27.6z"/>
<path style="fill:#30B9D8;" d="M270.4,7.6c5.6,0,9.6,15.2,9.6,20.8s-4,9.6-9.6,9.6"/>
<path style="fill:#5EE0EA;" d="M325.6,27.6c0,4.8-4,9.6-9.6,9.6s-9.6-4-9.6-9.6s4-20.8,9.6-20.8S325.6,22.8,325.6,27.6z"/>
<path style="fill:#30B9D8;" d="M315.2,7.6c5.6,0,9.6,15.2,9.6,20.8s-4,9.6-9.6,9.6"/>
<path style="fill:#5EE0EA;" d="M370.4,27.6c0,4.8-4,9.6-9.6,9.6s-9.6-4-9.6-9.6s4.8-20.8,9.6-20.8S370.4,22.8,370.4,27.6z"/>
<path style="fill:#30B9D8;" d="M360,7.6c5.6,0,9.6,15.2,9.6,20.8s-4,8.8-9.6,8.8"/>
<path style="fill:#5EE0EA;" d="M415.2,27.6c0,4.8-4.8,9.6-9.6,9.6c-5.6,0-9.6-4-9.6-9.6s4-20.8,9.6-20.8
	C410.4,7.6,415.2,22.8,415.2,27.6z"/>
<path style="fill:#30B9D8;" d="M404.8,7.6c5.6,0,9.6,15.2,9.6,20.8s-4.8,9.6-9.6,9.6"/>
<path style="fill:#5EE0EA;" d="M460,27.6c0,4.8-4,9.6-9.6,9.6s-10.4-4-10.4-9.6s4-20.8,9.6-20.8S460,22.8,460,27.6z"/>
<path style="fill:#30B9D8;" d="M449.6,7.6c5.6,0,9.6,15.2,9.6,20.8s-4,9.6-9.6,9.6"/>
<g>
</g>
<g>
</g>
<g>
</g>
<g>
</g>
<g>
</g>
<g>
</g>
<g>
</g>
<g>
</g>
<g>
</g>
<g>
</g>
<g>
</g>
<g>
</g>
<g>
</g>
<g>
</g>
<g>
</g>
</svg>
