<?xml version="1.0" encoding="iso-8859-1"?>
<!-- Generator: Adobe Illustrator 19.0.0, SVG Export Plug-In . SVG Version: 6.00 Build 0)  -->
<svg version="1.1" id="Layer_1" xmlns="http://www.w3.org/2000/svg" xmlns:xlink="http://www.w3.org/1999/xlink" x="0px" y="0px"
	 viewBox="0 0 480.819 480.819" style="enable-background:new 0 0 480.819 480.819;" xml:space="preserve">
<circle style="fill:#063F66;" cx="240.015" cy="240.26" r="216.8"/>
<path style="fill:#022730;" d="M86.415,87.46c84.8-84.8,221.6-84.8,306.4,0s84.8,221.6,0,306.4"/>
<g>
	<ellipse style="fill:#DCF9F6;" cx="140.015" cy="392.26" rx="1.6" ry="18.4"/>
	<ellipse style="fill:#DCF9F6;" cx="140.015" cy="392.26" rx="18.4" ry="1.6"/>
	
		<ellipse transform="matrix(0.7071 -0.7071 0.7071 0.7071 5.8474 322.9407)" style="fill:#DCF9F6;" cx="392.748" cy="154.412" rx="18.4" ry="1.6"/>
	
		<ellipse transform="matrix(0.7071 0.7071 -0.7071 0.7071 224.1053 -232.8295)" style="fill:#DCF9F6;" cx="393.103" cy="154.104" rx="18.4" ry="1.6"/>
	<ellipse style="fill:#DCF9F6;" cx="340.815" cy="97.06" rx="0.8" ry="8"/>
	<ellipse style="fill:#DCF9F6;" cx="340.815" cy="97.06" rx="8" ry="0.8"/>
	
		<ellipse transform="matrix(-0.7092 -0.705 0.705 -0.7092 225.6721 319.0104)" style="fill:#DCF9F6;" cx="178.628" cy="112.963" rx="8.8" ry="0.8"/>
	
		<ellipse transform="matrix(0.7092 -0.705 0.705 0.7092 -27.8333 158.4816)" style="fill:#DCF9F6;" cx="178.194" cy="112.98" rx="8.8" ry="0.8"/>
	
		<ellipse transform="matrix(-0.7092 -0.705 0.705 -0.7092 -55.4672 657.3189)" style="fill:#DCF9F6;" cx="107.83" cy="340.099" rx="8.8" ry="0.8"/>
	
		<ellipse transform="matrix(0.7092 -0.705 0.705 0.7092 -208.6305 175.2152)" style="fill:#DCF9F6;" cx="108.08" cy="340.508" rx="8.8" ry="0.8"/>
	
		<ellipse transform="matrix(0.7029 -0.7113 0.7113 0.7029 22.3793 230.1853)" style="fill:#DCF9F6;" cx="286.73" cy="88.304" rx="4" ry="0.8"/>
	
		<ellipse transform="matrix(0.7029 0.7113 -0.7113 0.7029 148.4199 -177.6302)" style="fill:#DCF9F6;" cx="286.84" cy="88.849" rx="4" ry="0.8"/>
	
		<ellipse transform="matrix(0.7029 -0.7113 0.7113 0.7029 -230.1627 271.7236)" style="fill:#DCF9F6;" cx="210.182" cy="411.376" rx="4" ry="0.8"/>
	
		<ellipse transform="matrix(0.7029 0.7113 -0.7113 0.7029 354.696 -27.3924)" style="fill:#DCF9F6;" cx="210.138" cy="410.889" rx="4" ry="0.8"/>
</g>
<path style="fill:#5EE0EA;" d="M182.415,49.86c-8,8-21.6,7.2-29.6-0.8s-8.8-21.6-0.8-29.6s39.2-25.6,47.2-16.8
	C208.015,10.66,190.415,41.86,182.415,49.86z"/>
<path style="fill:#30B9D8;" d="M199.215,1.86c8.8,8.8-8.8,39.2-16.8,47.2s-21.6,7.2-29.6-0.8"/>
<path style="fill:#5EE0EA;" d="M252.015,119.46c-8,8-21.6,7.2-29.6-0.8s-8.8-21.6-0.8-29.6s39.2-25.6,47.2-16.8
	C277.615,80.26,260.015,111.46,252.015,119.46z"/>
<path style="fill:#30B9D8;" d="M268.815,71.46c8.8,8.8-8.8,39.2-16.8,47.2c-8,8-21.6,7.2-29.6-0.8"/>
<path style="fill:#5EE0EA;" d="M321.615,189.06c-8,8-21.6,7.2-29.6-0.8s-8.8-21.6-0.8-29.6s39.2-25.6,47.2-16.8
	C347.215,149.86,329.615,181.06,321.615,189.06z"/>
<path style="fill:#30B9D8;" d="M338.415,141.86c8.8,8-8.8,39.2-16.8,47.2s-21.6,7.2-29.6-0.8"/>
<path style="fill:#5EE0EA;" d="M391.215,258.66c-8,8-21.6,7.2-29.6-0.8c-8.8-8.8-8.8-21.6-0.8-29.6s39.2-25.6,47.2-16.8
	C416.815,219.46,399.215,250.66,391.215,258.66z"/>
<path style="fill:#30B9D8;" d="M408.015,211.46c8.8,8.8-8.8,39.2-16.8,47.2c-8,8-21.6,7.2-29.6-0.8"/>
<path style="fill:#5EE0EA;" d="M460.815,328.26c-8,8-20.8,7.2-29.6-0.8c-8.8-8.8-8.8-21.6-0.8-29.6s39.2-25.6,47.2-16.8
	C486.415,289.06,468.815,320.26,460.815,328.26z"/>
<path style="fill:#30B9D8;" d="M478.415,281.06c8.8,8.8-8.8,39.2-16.8,47.2s-20.8,7.2-29.6-0.8"/>
<path style="fill:#5EE0EA;" d="M139.215,153.06c-8,8-21.6,7.2-29.6-0.8s-8.8-21.6-0.8-29.6s39.2-25.6,47.2-16.8
	C164.815,113.86,147.215,145.06,139.215,153.06z"/>
<path style="fill:#30B9D8;" d="M156.015,105.86c8.8,8.8-8.8,39.2-16.8,47.2s-21.6,7.2-29.6-0.8"/>
<path style="fill:#5EE0EA;" d="M75.215,89.06c-8,8-21.6,7.2-29.6-0.8s-8.8-21.6-0.8-29.6s39.2-25.6,47.2-16.8
	C100.815,49.86,83.215,81.06,75.215,89.06z"/>
<path style="fill:#30B9D8;" d="M92.015,41.86c8.8,8.8-8.8,39.2-16.8,47.2s-21.6,7.2-29.6-0.8"/>
<path style="fill:#5EE0EA;" d="M208.815,222.66c-8,8-21.6,7.2-29.6-0.8c-8.8-8.8-8.8-21.6-0.8-29.6s39.2-25.6,47.2-16.8
	C234.415,184.26,216.815,214.66,208.815,222.66z"/>
<path style="fill:#30B9D8;" d="M225.615,175.46c8.8,8.8-8.8,39.2-16.8,47.2s-21.6,7.2-29.6-0.8"/>
<path style="fill:#5EE0EA;" d="M278.415,292.26c-8,8-21.6,7.2-29.6-0.8c-8-8.8-8.8-21.6-0.8-29.6c8-8,39.2-25.6,47.2-16.8
	C304.015,253.86,286.415,284.26,278.415,292.26z"/>
<path style="fill:#30B9D8;" d="M296.015,245.06c8.8,8.8-8.8,39.2-16.8,47.2s-21.6,7.2-29.6-0.8"/>
<path style="fill:#5EE0EA;" d="M348.815,361.86c-8,8-21.6,7.2-29.6-0.8s-8.8-21.6-0.8-29.6s39.2-25.6,47.2-16.8
	C373.615,323.46,356.015,353.86,348.815,361.86z"/>
<path style="fill:#30B9D8;" d="M365.615,314.66c8.8,8-8.8,39.2-16.8,47.2s-21.6,7.2-29.6-0.8"/>
<path style="fill:#5EE0EA;" d="M418.415,431.46c-8,8-21.6,8-29.6-0.8c-8.8-8-8.8-21.6-0.8-29.6s39.2-25.6,47.2-16.8
	C443.215,393.06,425.615,423.46,418.415,431.46z"/>
<path style="fill:#30B9D8;" d="M435.215,384.26c8.8,8.8-8.8,39.2-16.8,47.2s-21.6,8-29.6-0.8"/>
<path style="fill:#5EE0EA;" d="M36.015,196.26c-8,8-21.6,7.2-29.6-0.8c-8-8.8-8.8-21.6-0.8-29.6s39.2-25.6,47.2-16.8
	C61.615,157.06,44.015,188.26,36.015,196.26z"/>
<path style="fill:#30B9D8;" d="M52.815,149.06c8.8,8.8-8.8,39.2-16.8,47.2s-21.6,7.2-29.6-0.8"/>
<path style="fill:#5EE0EA;" d="M105.615,265.86c-8,8-21.6,7.2-29.6-0.8c-8.8-8.8-8.8-21.6-0.8-29.6s39.2-25.6,47.2-16.8
	C131.215,226.66,113.615,257.86,105.615,265.86z"/>
<path style="fill:#30B9D8;" d="M122.415,218.66c8.8,8.8-8.8,39.2-16.8,47.2s-21.6,7.2-29.6-0.8"/>
<path style="fill:#5EE0EA;" d="M175.215,335.46c-8,8-21.6,7.2-29.6-0.8c-8.8-8-8.8-21.6-0.8-29.6s39.2-25.6,47.2-16.8
	C200.815,296.26,183.215,327.46,175.215,335.46z"/>
<path style="fill:#30B9D8;" d="M192.015,288.26c8.8,8.8-8.8,39.2-16.8,47.2s-21.6,7.2-29.6-0.8"/>
<path style="fill:#5EE0EA;" d="M244.815,405.06c-8,8-21.6,7.2-29.6-0.8c-8.8-8.8-8.8-21.6-0.8-29.6s39.2-25.6,47.2-16.8
	C270.415,365.86,252.815,397.06,244.815,405.06z"/>
<path style="fill:#30B9D8;" d="M261.615,357.86c8.8,8.8-8.8,39.2-16.8,47.2s-21.6,7.2-29.6-0.8"/>
<path style="fill:#5EE0EA;" d="M314.415,474.66c-8,8-21.6,8-29.6-0.8c-8-8-8.8-21.6-0.8-29.6s39.2-25.6,47.2-16.8
	C340.015,436.26,322.415,466.66,314.415,474.66z"/>
<path style="fill:#30B9D8;" d="M331.215,427.46c8.8,8.8-8.8,39.2-16.8,47.2s-21.6,8-29.6-0.8"/>
<g>
</g>
<g>
</g>
<g>
</g>
<g>
</g>
<g>
</g>
<g>
</g>
<g>
</g>
<g>
</g>
<g>
</g>
<g>
</g>
<g>
</g>
<g>
</g>
<g>
</g>
<g>
</g>
<g>
</g>
</svg>
