<?xml version="1.0" encoding="iso-8859-1"?>
<!-- Generator: Adobe Illustrator 19.0.0, SVG Export Plug-In . SVG Version: 6.00 Build 0)  -->
<svg version="1.1" id="Layer_1" xmlns="http://www.w3.org/2000/svg" xmlns:xlink="http://www.w3.org/1999/xlink" x="0px" y="0px"
	 viewBox="0 0 499.2 499.2" style="enable-background:new 0 0 499.2 499.2;" xml:space="preserve">
<circle style="fill:#19AFBF;" cx="251" cy="252.8" r="216.8"/>
<path style="fill:#0E94AA;" d="M98.2,99.2c84.8-84.8,221.6-84.8,306.4,0s84.8,221.6,0,306.4"/>
<path style="fill:#5EE0EA;" d="M183.8,413.6c0,4-4,8-8,8c-4.8,0-8-3.2-8-8s4-16.8,8-16.8C180.6,396.8,183.8,409.6,183.8,413.6z"/>
<path style="fill:#30B9D8;" d="M175.8,396.8c4.8,0,8,12.8,8,16.8s-4,8-8,8"/>
<path style="fill:#5EE0EA;" d="M220.6,413.6c0,4-4,8-8,8c-4.8,0-8-3.2-8-8s4-16.8,8-16.8C217.4,396.8,220.6,409.6,220.6,413.6z"/>
<path style="fill:#30B9D8;" d="M212.6,396.8c4.8,0,8,12.8,8,16.8s-4,8-8,8"/>
<path style="fill:#5EE0EA;" d="M257.4,413.6c0,4-4,8-8,8c-4.8,0-8-3.2-8-8s4-16.8,8-16.8C254.2,396.8,257.4,409.6,257.4,413.6z"/>
<path style="fill:#30B9D8;" d="M249.4,396.8c4.8,0,8,12.8,8,16.8s-4,8-8,8"/>
<path style="fill:#5EE0EA;" d="M294.2,413.6c0,4-4,8-8,8c-4.8,0-8-3.2-8-8s4-16.8,8-16.8C291,396.8,294.2,409.6,294.2,413.6z"/>
<path style="fill:#30B9D8;" d="M286.2,396.8c4.8,0,8,12.8,8,16.8s-4,8-8,8"/>
<path style="fill:#5EE0EA;" d="M331,413.6c0,4-4,8-8,8c-4.8,0-8-3.2-8-8s4-16.8,8-16.8C327.8,396.8,331,409.6,331,413.6z"/>
<path style="fill:#30B9D8;" d="M323,396.8c4.8,0,8,12.8,8,16.8s-4,8-8,8"/>
<path style="fill:#5EE0EA;" d="M183.8,452.8c0,4-4,8-8,8c-4.8,0-8-3.2-8-8c0-4,4-16.8,8-16.8C180.6,436,183.8,448.8,183.8,452.8z"/>
<path style="fill:#30B9D8;" d="M175.8,436c4.8,0,8,12.8,8,16.8s-4,8-8,8"/>
<path style="fill:#5EE0EA;" d="M220.6,452.8c0,4-4,8-8,8c-4.8,0-8-3.2-8-8c0-4,4-16.8,8-16.8C217.4,436,220.6,448.8,220.6,452.8z"/>
<path style="fill:#30B9D8;" d="M212.6,436c4.8,0,8,12.8,8,16.8s-4,8-8,8"/>
<path style="fill:#5EE0EA;" d="M257.4,452.8c0,4-4,8-8,8c-4.8,0-8-3.2-8-8c0-4,4-16.8,8-16.8C254.2,436,257.4,448.8,257.4,452.8z"/>
<path style="fill:#30B9D8;" d="M249.4,436c4.8,0,8,12.8,8,16.8s-4,8-8,8"/>
<path style="fill:#5EE0EA;" d="M294.2,452.8c0,4-4,8-8,8c-4.8,0-8-3.2-8-8c0-4,4-16.8,8-16.8C291,436,294.2,448.8,294.2,452.8z"/>
<path style="fill:#30B9D8;" d="M286.2,436c4.8,0,8,12.8,8,16.8s-4,8-8,8"/>
<path style="fill:#5EE0EA;" d="M331,452.8c0,4-4,8-8,8c-4.8,0-8-3.2-8-8c0-4,4-16.8,8-16.8C327.8,436,331,448.8,331,452.8z"/>
<path style="fill:#30B9D8;" d="M323,436c4.8,0,8,12.8,8,16.8s-4,8-8,8"/>
<path style="fill:#5EE0EA;" d="M183.8,491.2c0,4-4,8-8,8c-4.8,0-8-3.2-8-8c0-4,4-16.8,8-16.8C180.6,474.4,183.8,487.2,183.8,491.2z"
	/>
<path style="fill:#30B9D8;" d="M175.8,474.4c4.8,0,8,12.8,8,16.8s-4,8-8,8"/>
<path style="fill:#5EE0EA;" d="M220.6,491.2c0,4-4,8-8,8c-4.8,0-8-3.2-8-8c0-4,4-16.8,8-16.8C217.4,474.4,220.6,487.2,220.6,491.2z"
	/>
<path style="fill:#30B9D8;" d="M212.6,474.4c4.8,0,8,12.8,8,16.8s-4,8-8,8"/>
<path style="fill:#5EE0EA;" d="M257.4,491.2c0,4-4,8-8,8c-4.8,0-8-3.2-8-8c0-4,4-16.8,8-16.8C254.2,474.4,257.4,487.2,257.4,491.2z"
	/>
<path style="fill:#30B9D8;" d="M249.4,474.4c4.8,0,8,12.8,8,16.8s-4,8-8,8"/>
<path style="fill:#5EE0EA;" d="M294.2,491.2c0,4-4,8-8,8c-4.8,0-8-3.2-8-8c0-4,4-16.8,8-16.8C291,474.4,294.2,487.2,294.2,491.2z"/>
<path style="fill:#30B9D8;" d="M286.2,474.4c4.8,0,8,12.8,8,16.8s-4,8-8,8"/>
<path style="fill:#5EE0EA;" d="M331,491.2c0,4-4,8-8,8c-4.8,0-8-3.2-8-8c0-4,4-16.8,8-16.8C327.8,474.4,331,487.2,331,491.2z"/>
<path style="fill:#30B9D8;" d="M323,474.4c4.8,0,8,12.8,8,16.8s-4,8-8,8"/>
<circle style="fill:#FFCE00;" cx="167.8" cy="136" r="78.4"/>
<path style="fill:#FF9D00;" d="M167.8,58.4c43.2,0,78.4,35.2,78.4,78.4s-35.2,78.4-78.4,78.4"/>
<path style="fill:#FFBC00;" d="M245.4,136c0,43.2-35.2,72-78.4,72s-78.4-28.8-78.4-72s35.2-72,78.4-72
	C210.2,64,245.4,92.8,245.4,136z"/>
<path style="fill:#FFB000;" d="M167.8,64c43.2,0,78.4,28.8,78.4,72s-35.2,72-78.4,72s-78.4-28.8-78.4-72"/>
<path style="fill:#FFBC00;" d="M167.8,64c43.2,0,78.4,28.8,78.4,72s-35.2,72-78.4,72"/>
<path style="fill:#FFCE00;" d="M245.4,136c0,43.2-35.2,72-78.4,72"/>
<circle style="fill:#FF9D00;" cx="167.8" cy="32.8" r="5.6"/>
<polygon style="fill:#FFCE00;" points="174.2,13.6 167.8,16 160.6,13.6 167.8,0 "/>
<path style="fill:#FF9D00;" d="M161.4,240c0-3.2,2.4-5.6,5.6-5.6s5.6,2.4,5.6,5.6c0,3.2-2.4,5.6-5.6,5.6S161.4,243.2,161.4,240z"/>
<polygon style="fill:#FFCE00;" points="160.6,259.2 167.8,256.8 174.2,259.2 167.8,272.8 "/>
<circle style="fill:#FF9D00;" cx="240.6" cy="63.2" r="5.6"/>
<polygon style="fill:#FFCE00;" points="259,54.4 252.6,51.2 249.4,44.8 263.8,40 "/>
<circle style="fill:#FF9D00;" cx="94.2" cy="209.6" r="5.6"/>
<polygon style="fill:#FFCE00;" points="75.8,218.4 82.2,221.6 85.4,228 71,232.8 "/>
<circle style="fill:#FF9D00;" cx="271" cy="136" r="5.6"/>
<polygon style="fill:#FFCE00;" points="290.2,143.2 287.8,136 290.2,129.6 303.8,136 "/>
<circle style="fill:#FF9D00;" cx="63.8" cy="136" r="5.6"/>
<polygon style="fill:#FFCE00;" points="44.6,129.6 47,136 44.6,143.2 31,136 "/>
<circle style="fill:#FF9D00;" cx="240.6" cy="209.6" r="5.6"/>
<polygon style="fill:#FFCE00;" points="249.4,228 252.6,221.6 259,218.4 263.8,232.8 "/>
<circle style="fill:#FF9D00;" cx="94.2" cy="63.2" r="5.6"/>
<g>
	<polygon style="fill:#FFCE00;" points="85.4,44.8 82.2,51.2 75.8,54.4 71,40 	"/>
	<circle style="fill:#FFCE00;" cx="207.8" cy="40.8" r="5.6"/>
</g>
<polygon style="fill:#FF9D00;" points="222.2,26.4 214.2,25.6 209.4,20.8 220.6,11.2 "/>
<circle style="fill:#FFCE00;" cx="127" cy="232" r="5.6"/>
<polygon style="fill:#FF9D00;" points="113.4,246.4 120.6,247.2 126.2,252 114.2,261.6 "/>
<circle style="fill:#FFCE00;" cx="263.8" cy="97.6" r="5.6"/>
<polygon style="fill:#FF9D00;" points="283.8,96.8 279,91.2 279,84 294.2,85.6 "/>
<circle style="fill:#FFCE00;" cx="71" cy="175.2" r="5.6"/>
<polygon style="fill:#FF9D00;" points="51,176 55.8,181.6 56.6,188.8 41.4,187.2 "/>
<circle style="fill:#FFCE00;" cx="263" cy="176.8" r="5.6"/>
<polygon style="fill:#FF9D00;" points="277.4,190.4 278.2,183.2 283,177.6 292.6,189.6 "/>
<circle style="fill:#FFCE00;" cx="71.8" cy="96" r="5.6"/>
<polygon style="fill:#FF9D00;" points="57.4,81.6 56.6,88.8 51.8,94.4 42.2,83.2 "/>
<path style="fill:#FFCE00;" d="M200.6,234.4c-1.6-3.2,0-6.4,3.2-8s6.4,0,7.2,3.2c1.6,3.2,0,6.4-3.2,8
	C205.4,239.2,202.2,237.6,200.6,234.4z"/>
<polygon style="fill:#FF9D00;" points="207,252.8 212.6,248 219.8,247.2 218.2,262.4 "/>
<circle style="fill:#FFCE00;" cx="128.6" cy="40" r="5.6"/>
<polygon style="fill:#FF9D00;" points="127.8,20 122.2,24.8 115,24.8 116.6,9.6 "/>
<path style="fill:#DCF9F6;" d="M402.2,236c0-55.2-44-99.2-98.4-99.2c-38.4,0-72,22.4-88,54.4c-4-0.8-7.2-1.6-11.2-1.6
	c-25.6,0-47.2,20.8-47.2,47.2c0,0.8,0.8,2.4,0.8,3.2c-34.4,4-52.8,33.6-52.8,70.4v4.8c0,38.4,30.4,71.2,69.6,71.2h158.4
	c38.4,0,68-32,68-71.2v-22.4C401.4,274.4,402.2,254.4,402.2,236z"/>
<path style="fill:#BDE5E1;" d="M402.2,249.6c0-55.2-44-99.2-98.4-99.2c-38.4,0-72,22.4-88,54.4c-4-0.8-7.2-1.6-11.2-1.6
	c-25.6,0-47.2,20.8-47.2,47.2c0,0.8,0.8,2.4,0.8,3.2c-34.4,4-52.8,20-52.8,56.8v4.8c0,38.4,30.4,71.2,69.6,71.2h158.4
	c38.4,0,68-32,68-71.2v-22.4C401.4,274.4,402.2,268,402.2,249.6z"/>
<path style="fill:#B1DDD9;" d="M177.4,385.6h156c38.4,0,68-32,68-71.2V292c0-17.6,0.8-28,0.8-47.2"/>
<g>
	<path style="fill:#DCF9F6;" d="M261.4,250.4c-3.2-0.8-6.4-0.8-9.6-0.8c-18.4,0-32.8,15.2-32.8,33.6c0,3.2,0.8,6.4,1.6,9.6
		C222.2,270.4,239.8,253.6,261.4,250.4z"/>
	<path style="fill:#DCF9F6;" d="M318.2,220c-4-1.6-8-3.2-12-4c-24.8-4.8-48,12-52.8,36.8c-0.8,4-0.8,8.8,0,12.8
		C262.2,236.8,289.4,218.4,318.2,220z"/>
</g>
<g>
	<circle style="fill:#B1DDD9;" cx="138.2" cy="304.8" r="3.2"/>
	<circle style="fill:#B1DDD9;" cx="147" cy="279.2" r="4.8"/>
	<circle style="fill:#B1DDD9;" cx="204.6" cy="232" r="2.4"/>
</g>
<g>
	<circle style="fill:#DCF9F6;" cx="250.2" cy="207.2" r="4.8"/>
	<circle style="fill:#DCF9F6;" cx="289.4" cy="166.4" r="2.4"/>
	<circle style="fill:#DCF9F6;" cx="311.8" cy="173.6" r="7.2"/>
</g>
<g>
</g>
<g>
</g>
<g>
</g>
<g>
</g>
<g>
</g>
<g>
</g>
<g>
</g>
<g>
</g>
<g>
</g>
<g>
</g>
<g>
</g>
<g>
</g>
<g>
</g>
<g>
</g>
<g>
</g>
</svg>
