<?xml version="1.0" encoding="iso-8859-1"?>
<!-- Generator: Adobe Illustrator 19.0.0, SVG Export Plug-In . SVG Version: 6.00 Build 0)  -->
<svg version="1.1" id="Layer_1" xmlns="http://www.w3.org/2000/svg" xmlns:xlink="http://www.w3.org/1999/xlink" x="0px" y="0px"
	 viewBox="0 0 501.61 501.61" style="enable-background:new 0 0 501.61 501.61;" xml:space="preserve">
<circle style="fill:#063F66;" cx="266.405" cy="255.21" r="216.8"/>
<path style="fill:#022730;" d="M112.805,101.61c84.8-84.8,221.6-84.8,306.4,0s84.8,221.6,0,306.4"/>
<path style="fill:#5EE0EA;" d="M199.205,416.01c0,4-4,8-8,8c-4.8,0-8-3.2-8-8s4-16.8,8-16.8
	C195.205,399.21,199.205,412.01,199.205,416.01z"/>
<path style="fill:#30B9D8;" d="M191.205,399.21c4.8,0,8,12.8,8,16.8s-4,8-8,8"/>
<path style="fill:#5EE0EA;" d="M236.005,416.01c0,4-4,8-8,8c-4.8,0-8-3.2-8-8s4-16.8,8-16.8
	C232.005,399.21,236.005,412.01,236.005,416.01z"/>
<path style="fill:#30B9D8;" d="M228.005,399.21c4.8,0,8,12.8,8,16.8s-4,8-8,8"/>
<path style="fill:#5EE0EA;" d="M272.805,416.01c0,4-4,8-8,8c-4.8,0-8-3.2-8-8s4-16.8,8-16.8
	C268.805,399.21,272.805,412.01,272.805,416.01z"/>
<path style="fill:#30B9D8;" d="M264.805,399.21c4.8,0,8,12.8,8,16.8s-4,8-8,8"/>
<path style="fill:#5EE0EA;" d="M309.605,416.01c0,4-4,8-8,8c-4.8,0-8-3.2-8-8s4-16.8,8-16.8
	C305.605,399.21,309.605,412.01,309.605,416.01z"/>
<path style="fill:#30B9D8;" d="M301.605,399.21c4.8,0,8,12.8,8,16.8s-4,8-8,8"/>
<path style="fill:#5EE0EA;" d="M346.405,416.01c0,4-4,8-8,8c-4.8,0-8-3.2-8-8s4-16.8,8-16.8
	C342.405,399.21,346.405,412.01,346.405,416.01z"/>
<path style="fill:#30B9D8;" d="M338.405,399.21c4.8,0,8,12.8,8,16.8s-4,8-8,8"/>
<path style="fill:#5EE0EA;" d="M199.205,454.41c0,4-4,8-8,8c-4.8,0-8-3.2-8-8c0-4,4-16.8,8-16.8S199.205,450.41,199.205,454.41z"/>
<path style="fill:#30B9D8;" d="M191.205,437.61c4.8,0,8,12.8,8,16.8s-4,8-8,8"/>
<path style="fill:#5EE0EA;" d="M236.005,454.41c0,4-4,8-8,8c-4.8,0-8-3.2-8-8c0-4,4-16.8,8-16.8S236.005,450.41,236.005,454.41z"/>
<path style="fill:#30B9D8;" d="M228.005,437.61c4.8,0,8,12.8,8,16.8s-4,8-8,8"/>
<path style="fill:#5EE0EA;" d="M272.805,454.41c0,4-4,8-8,8c-4.8,0-8-3.2-8-8c0-4,4-16.8,8-16.8S272.805,450.41,272.805,454.41z"/>
<path style="fill:#30B9D8;" d="M264.805,437.61c4.8,0,8,12.8,8,16.8s-4,8-8,8"/>
<path style="fill:#5EE0EA;" d="M309.605,454.41c0,4-4,8-8,8c-4.8,0-8-3.2-8-8c0-4,4-16.8,8-16.8S309.605,450.41,309.605,454.41z"/>
<path style="fill:#30B9D8;" d="M301.605,437.61c4.8,0,8,12.8,8,16.8s-4,8-8,8"/>
<path style="fill:#5EE0EA;" d="M346.405,454.41c0,4-4,8-8,8c-4.8,0-8-3.2-8-8c0-4,4-16.8,8-16.8S346.405,450.41,346.405,454.41z"/>
<path style="fill:#30B9D8;" d="M338.405,437.61c4.8,0,8,12.8,8,16.8s-4,8-8,8"/>
<path style="fill:#5EE0EA;" d="M199.205,493.61c0,4-4,8-8,8c-4.8,0-8-3.2-8-8c0-4,4-16.8,8-16.8
	C195.205,476.81,199.205,489.61,199.205,493.61z"/>
<path style="fill:#30B9D8;" d="M191.205,476.81c4.8,0,8,12.8,8,16.8s-4,8-8,8"/>
<path style="fill:#5EE0EA;" d="M236.005,493.61c0,4-4,8-8,8c-4.8,0-8-3.2-8-8c0-4,4-16.8,8-16.8
	C232.005,476.81,236.005,489.61,236.005,493.61z"/>
<path style="fill:#30B9D8;" d="M228.005,476.81c4.8,0,8,12.8,8,16.8s-4,8-8,8"/>
<path style="fill:#5EE0EA;" d="M272.805,493.61c0,4-4,8-8,8c-4.8,0-8-3.2-8-8c0-4,4-16.8,8-16.8
	C268.805,476.81,272.805,489.61,272.805,493.61z"/>
<path style="fill:#30B9D8;" d="M264.805,476.81c4.8,0,8,12.8,8,16.8s-4,8-8,8"/>
<path style="fill:#5EE0EA;" d="M309.605,493.61c0,4-4,8-8,8c-4.8,0-8-3.2-8-8c0-4,4-16.8,8-16.8
	C305.605,476.81,309.605,489.61,309.605,493.61z"/>
<path style="fill:#30B9D8;" d="M301.605,476.81c4.8,0,8,12.8,8,16.8s-4,8-8,8"/>
<path style="fill:#5EE0EA;" d="M346.405,493.61c0,4-4,8-8,8c-4.8,0-8-3.2-8-8c0-4,4-16.8,8-16.8
	C342.405,476.81,346.405,489.61,346.405,493.61z"/>
<path style="fill:#30B9D8;" d="M338.405,476.81c4.8,0,8,12.8,8,16.8s-4,8-8,8"/>
<path style="fill:#DCF9F6;" d="M418.405,238.41c0-55.2-44.8-99.2-99.2-99.2c-38.4,0-72,22.4-88.8,54.4c-4-0.8-7.2-1.6-11.2-1.6
	c-25.6,0-47.2,20.8-47.2,47.2c0,0.8,1.6,2.4,1.6,3.2c-34.4,3.2-51.2,33.6-51.2,69.6v4.8c0,38.4,28.8,69.6,67.2,69.6h158.4
	c38.4,0,70.4-31.2,70.4-69.6v-22.4C418.405,276.81,418.405,256.81,418.405,238.41z"/>
<path style="fill:#BDE5E1;" d="M418.405,251.21c0-55.2-44.8-99.2-99.2-99.2c-38.4,0-72,22.4-88.8,54.4c-4-0.8-7.2-1.6-11.2-1.6
	c-25.6,0-47.2,20.8-47.2,47.2c0,0.8,1.6,2.4,1.6,3.2c-34.4,3.2-51.2,20-51.2,56v4.8c0,38.4,28.8,69.6,67.2,69.6h158.4
	c38.4,0,70.4-31.2,70.4-69.6v-22.4C418.405,276.81,418.405,270.41,418.405,251.21z"/>
<path style="fill:#B1DDD9;" d="M186.405,386.41h161.6c38.4,0,70.4-31.2,70.4-69.6v-22.4c0-17.6-1.6-24.8-1.6-43.2"/>
<g>
	<path style="fill:#DCF9F6;" d="M276.005,252.81c-3.2-0.8-6.4-1.6-9.6-1.6c-18.4,0-32.8,15.2-32.8,33.6c0,3.2,0.8,6.4,1.6,9.6
		C237.605,272.01,254.405,255.21,276.005,252.81z"/>
	<path style="fill:#DCF9F6;" d="M333.605,222.41c-4-1.6-8-3.2-12-4c-24.8-4.8-48,12-52.8,36.8c-0.8,4-0.8,8.8,0,12.8
		C276.805,239.21,304.005,220.81,333.605,222.41z"/>
</g>
<g>
	<circle style="fill:#B1DDD9;" cx="153.605" cy="307.21" r="3.2"/>
	<circle style="fill:#B1DDD9;" cx="162.405" cy="281.61" r="4.8"/>
	<circle style="fill:#B1DDD9;" cx="219.205" cy="234.41" r="2.4"/>
</g>
<g>
	<circle style="fill:#DCF9F6;" cx="265.605" cy="208.81" r="4.8"/>
	<circle style="fill:#DCF9F6;" cx="304.005" cy="168.01" r="2.4"/>
	<circle style="fill:#DCF9F6;" cx="326.405" cy="176.01" r="7.2"/>
</g>
<path style="fill:#B0D1CF;" d="M128.805,62.41c0-22.4,7.2-43.2,18.4-60.8c-6.4-0.8-12.8-1.6-20-1.6c-60-0.8-108.8,48.8-108.8,108.8
	c0,60.8,48.8,109.6,108.8,109.6c37.6,0,71.2-19.2,91.2-48.8C167.205,160.01,128.805,116.01,128.805,62.41z"/>
<path style="fill:#7CA09C;" d="M128.805,62.41c0-22.4,7.2-43.2,18.4-60.8c-6.4-0.8-12.8-1.6-20-1.6c-60-0.8-85.6,48.8-85.6,108.8
	c0,60.8,25.6,109.6,85.6,109.6c37.6,0,71.2-19.2,91.2-48.8C167.205,160.01,128.805,116.01,128.805,62.41z"/>
<g>
	<ellipse style="fill:#DCF9F6;" cx="248.805" cy="90.41" rx="1.6" ry="18.4"/>
	<ellipse style="fill:#DCF9F6;" cx="248.805" cy="90.41" rx="18.4" ry="1.6"/>
	<ellipse style="fill:#DCF9F6;" cx="367.205" cy="111.21" rx="0.8" ry="8"/>
	<ellipse style="fill:#DCF9F6;" cx="367.205" cy="111.21" rx="8" ry="0.8"/>
	
		<ellipse transform="matrix(-0.7113 -0.7029 0.7029 -0.7113 260.8717 361.1043)" style="fill:#DCF9F6;" cx="204.596" cy="126.977" rx="8.8" ry="0.8"/>
	
		<ellipse transform="matrix(0.7113 -0.7029 0.7029 0.7113 -30.512 180.7465)" style="fill:#DCF9F6;" cx="204.77" cy="127.516" rx="8.8" ry="0.8"/>
	
		<ellipse transform="matrix(0.6987 -0.7154 0.7154 0.6987 20.2611 254.8915)" style="fill:#DCF9F6;" cx="312.746" cy="103.391" rx="4" ry="0.8"/>
	<path style="fill:#DCF9F6;" d="M312.005,103.21c-1.6-1.6-3.2-3.2-2.4-3.2C309.605,100.01,311.205,100.81,312.005,103.21
		c2.4,0.8,3.2,2.4,3.2,2.4S313.605,105.61,312.005,103.21z"/>
</g>
<g>
</g>
<g>
</g>
<g>
</g>
<g>
</g>
<g>
</g>
<g>
</g>
<g>
</g>
<g>
</g>
<g>
</g>
<g>
</g>
<g>
</g>
<g>
</g>
<g>
</g>
<g>
</g>
<g>
</g>
</svg>
