<?xml version="1.0" encoding="utf-8"?>
<!-- Generator: Adobe Illustrator 20.0.0, SVG Export Plug-In . SVG Version: 6.00 Build 0)  -->
<svg version="1.1" id="Layer_1" xmlns="http://www.w3.org/2000/svg" xmlns:xlink="http://www.w3.org/1999/xlink" x="0px" y="0px"
	 viewBox="0 0 410 410" enable-background="new 0 0 410 410" xml:space="preserve">
<g>
	<g>
		<defs>
			<rect id="SVGID_1_" x="30" y="8" width="348" height="388.8"/>
		</defs>
		<clipPath id="SVGID_2_">
			<use xlink:href="#SVGID_1_"  overflow="visible"/>
		</clipPath>
		<path clip-path="url(#SVGID_2_)" fill="#19AFBF" d="M376.9,207c0,95.8-77.7,173.4-173.4,173.4C107.7,380.5,30,302.8,30,207
			S107.7,33.6,203.4,33.6C299.2,33.6,376.9,111.3,376.9,207L376.9,207z M376.9,207"/>
		<path clip-path="url(#SVGID_2_)" fill="#0E94AA" d="M80.6,84.2c67.8-67.8,177.9-67.8,245.8,0s67.8,177.3,0,245.1"/>
	</g>
	<path fill="#C5EAE7" d="M376.2,114.2C376.2,55.4,328.9,8,270,8c-41.6,0-77.4,23.7-94.7,58.9c-3.8-0.6-7.7-1.3-12.2-1.3
		c-27.5,0-50.6,22.4-50.6,50.6v3.2c-36.5,3.2-56.3,35.2-56.3,74.2v5.1c0,41,33.9,73.6,75.5,73.6H302c41,0,74.2-32.6,74.2-74.2V114.2
		z M376.2,114.2"/>
	<path fill="#98D3CD" d="M376.2,128.3c0-58.9-47.4-106.2-106.2-106.2c-41.6,0-77.4,23.7-94.7,58.9c-3.8-0.6-7.7-1.3-12.2-1.3
		c-27.5,0-50.6,22.4-50.6,50.6v3.2c-36.5,3.2-56.3,21.1-56.3,60.2v5.1c0,41,33.9,73.6,75.5,73.6H302c41,0,74.2-32.6,74.2-74.2V128.3
		z M376.2,128.3"/>
	<path fill="#8BCCC2" d="M133,272.3h168.3c41.6,0,74.9-32.6,74.9-74.2v-73.6"/>
	<path fill="#C5EAE7" d="M223.9,129.6c-3.2-0.6-6.4-1.3-10.2-1.3c-19.8,0-35.8,16-35.8,35.8c0,3.2,0.6,7,1.3,10.2
		C183,150.7,200.9,132.8,223.9,129.6L223.9,129.6z M223.9,129.6"/>
	<path fill="#C5EAE7" d="M285.4,97c-3.8-1.9-8.3-3.8-12.8-4.5c-26.2-5.1-51.8,12.8-57,39c-0.6,4.5-0.6,9.6,0,14.1
		C225.2,115.5,254,95,285.4,97L285.4,97z M285.4,97"/>
	<path fill="#C5EAE7" d="M96.6,187.8c0,2.1-1.7,3.8-3.8,3.8c-2.1,0-3.8-1.7-3.8-3.8s1.7-3.8,3.8-3.8C94.8,184,96.6,185.7,96.6,187.8
		L96.6,187.8z M96.6,187.8"/>
	<path fill="#C5EAE7" d="M106.8,161c0,2.8-2.3,5.1-5.1,5.1c-2.8,0-5.1-2.3-5.1-5.1s2.3-5.1,5.1-5.1
		C104.5,155.8,106.8,158.1,106.8,161L106.8,161z M106.8,161"/>
	<path fill="#C5EAE7" d="M165,109.8c0,1.1-0.9,1.9-1.9,1.9c-1.1,0-1.9-0.9-1.9-1.9c0-1.1,0.9-1.9,1.9-1.9
		C164.2,107.8,165,108.7,165,109.8L165,109.8z M165,109.8"/>
	<path fill="#C5EAE7" d="M217.5,82.9c0,2.8-2.3,5.1-5.1,5.1c-2.8,0-5.1-2.3-5.1-5.1s2.3-5.1,5.1-5.1
		C215.2,77.8,217.5,80.1,217.5,82.9L217.5,82.9z M217.5,82.9"/>
	<path fill="#C5EAE7" d="M256.6,39.4c0,1.4-1.1,2.6-2.6,2.6s-2.6-1.1-2.6-2.6c0-1.4,1.1-2.6,2.6-2.6S256.6,37.9,256.6,39.4
		L256.6,39.4z M256.6,39.4"/>
	<path fill="#C5EAE7" d="M286,47.7c0,4.2-3.4,7.7-7.7,7.7c-4.2,0-7.7-3.4-7.7-7.7c0-4.2,3.4-7.7,7.7-7.7C282.6,40,286,43.4,286,47.7
		L286,47.7z M286,47.7"/>
	<path fill="#FFAA00" d="M336.6,285.1h-31.4l-17.9,25.6h12.2l-15.4,37.1l50.6-43.5h-12.2L336.6,285.1z M336.6,285.1"/>
	<path fill="#FFBC00" d="M336.6,285.1l-25,17.9l-24.3,7.7h19.8l-23,37.1l50.6-43.5h-12.2L336.6,285.1z M336.6,285.1"/>
	<path fill="#FFF200" d="M323.1,285.1h-17.9l-17.9,25.6h27.5l-30.7,37.1l50.6-43.5h-26.9L323.1,285.1z M323.1,285.1"/>
	<path fill="#FFDA00" d="M323.1,285.1L309,287l-21.8,23.7h27.5l-30.7,37.1l50.6-43.5l-30.7,3.2L323.1,285.1z M323.1,285.1"/>
	<path fill="#5EE0EA" d="M112.6,304.3c0,4.5-3.8,8.3-9,8.3c-4.5,0-8.3-3.8-8.3-8.3c0-4.5,3.8-17.9,8.3-17.9
		C108.7,286.4,112.6,299.8,112.6,304.3L112.6,304.3z M112.6,304.3"/>
	<path fill="#30B9D8" d="M103.6,286.4c4.5,0,9,13.4,9,17.9c0,4.5-3.8,8.3-9,8.3"/>
	<path fill="#5EE0EA" d="M152.2,304.3c0,4.5-3.8,8.3-9,8.3c-4.5,0-8.3-3.8-8.3-8.3c0-4.5,3.8-17.9,8.3-17.9
		C147.8,286.4,152.2,299.8,152.2,304.3L152.2,304.3z M152.2,304.3"/>
	<path fill="#30B9D8" d="M143.3,286.4c4.5,0,9,13.4,9,17.9c0,4.5-3.8,8.3-9,8.3"/>
	<path fill="#5EE0EA" d="M191.3,304.3c0,4.5-3.8,8.3-9,8.3c-4.5,0-9-3.8-9-8.3c0-4.5,3.8-17.9,9-17.9
		C187.4,286.4,191.3,299.8,191.3,304.3L191.3,304.3z M191.3,304.3"/>
	<path fill="#30B9D8" d="M183,286.4c4.5,0,9,13.4,9,17.9c0,4.5-3.8,8.3-9,8.3"/>
	<path fill="#5EE0EA" d="M231,304.3c0,4.5-3.8,8.3-9,8.3c-4.5,0-8.3-3.8-8.3-8.3c0-4.5,3.8-17.9,8.3-17.9
		C227.1,286.4,231,299.8,231,304.3L231,304.3z M231,304.3"/>
	<path fill="#30B9D8" d="M222,286.4c4.5,0,9,13.4,9,17.9c0,4.5-3.8,8.3-9,8.3"/>
	<path fill="#5EE0EA" d="M270.6,304.3c0,4.5-3.8,8.3-9,8.3s-9-3.8-9-8.3c0-4.5,3.8-17.9,9-17.9S270.6,299.8,270.6,304.3L270.6,304.3
		z M270.6,304.3"/>
	<path fill="#30B9D8" d="M261.7,286.4c4.5,0,9,13.4,9,17.9c0,4.5-3.8,8.3-9,8.3"/>
	<path fill="#5EE0EA" d="M112.6,345.9c0,4.5-3.8,8.3-9,8.3c-4.5,0-8.3-3.8-8.3-8.3c0-4.5,3.8-17.9,8.3-17.9
		C108.7,328,112.6,341.4,112.6,345.9L112.6,345.9z M112.6,345.9"/>
	<path fill="#30B9D8" d="M103.6,328c4.5,0,9,13.4,9,17.9c0,4.5-3.8,8.3-9,8.3"/>
	<path fill="#5EE0EA" d="M152.2,345.9c0,4.5-3.8,8.3-9,8.3c-4.5,0-8.3-3.8-8.3-8.3c0-4.5,3.8-17.9,8.3-17.9
		C147.8,328,152.2,341.4,152.2,345.9L152.2,345.9z M152.2,345.9"/>
	<path fill="#30B9D8" d="M143.3,328c4.5,0,9,13.4,9,17.9c0,4.5-3.8,8.3-9,8.3"/>
	<path fill="#5EE0EA" d="M191.3,345.9c0,4.5-3.8,8.3-9,8.3c-4.5,0-9-3.8-9-8.3c0-4.5,3.8-17.9,9-17.9
		C187.4,328,191.3,341.4,191.3,345.9L191.3,345.9z M191.3,345.9"/>
	<path fill="#30B9D8" d="M183,328c4.5,0,9,13.4,9,17.9c0,4.5-3.8,8.3-9,8.3"/>
	<path fill="#5EE0EA" d="M231,345.9c0,4.5-3.8,8.3-9,8.3c-4.5,0-8.3-3.8-8.3-8.3c0-4.5,3.8-17.9,8.3-17.9
		C227.1,328,231,341.4,231,345.9L231,345.9z M231,345.9"/>
	<path fill="#30B9D8" d="M222,328c4.5,0,9,13.4,9,17.9c0,4.5-3.8,8.3-9,8.3"/>
	<path fill="#5EE0EA" d="M270.6,345.9c0,4.5-3.8,8.3-9,8.3s-9-3.8-9-8.3c0-4.5,3.8-17.9,9-17.9S270.6,341.4,270.6,345.9L270.6,345.9
		z M270.6,345.9"/>
	<path fill="#30B9D8" d="M261.7,328c4.5,0,9,13.4,9,17.9c0,4.5-3.8,8.3-9,8.3"/>
	<path fill="#5EE0EA" d="M112.6,387.5c0,4.5-3.8,8.3-9,8.3c-4.5,0-8.3-3.8-8.3-8.3c0-4.5,3.8-17.9,8.3-17.9
		C108.7,369.6,112.6,383,112.6,387.5L112.6,387.5z M112.6,387.5"/>
	<path fill="#30B9D8" d="M103.6,369.6c4.5,0,9,13.4,9,17.9c0,4.5-3.8,8.3-9,8.3"/>
	<path fill="#5EE0EA" d="M152.2,387.5c0,4.5-3.8,8.3-9,8.3c-4.5,0-8.3-3.8-8.3-8.3c0-4.5,3.8-17.9,8.3-17.9
		C147.8,369.6,152.2,383,152.2,387.5L152.2,387.5z M152.2,387.5"/>
	<path fill="#30B9D8" d="M143.3,369.6c4.5,0,9,13.4,9,17.9c0,4.5-3.8,8.3-9,8.3"/>
	<path fill="#5EE0EA" d="M191.3,387.5c0,4.5-3.8,8.3-9,8.3c-4.5,0-9-3.8-9-8.3c0-4.5,3.8-17.9,9-17.9
		C187.4,369.6,191.3,383,191.3,387.5L191.3,387.5z M191.3,387.5"/>
	<path fill="#30B9D8" d="M183,369.6c4.5,0,9,13.4,9,17.9c0,4.5-3.8,8.3-9,8.3"/>
	<path fill="#5EE0EA" d="M231,387.5c0,4.5-3.8,8.3-9,8.3c-4.5,0-8.3-3.8-8.3-8.3c0-4.5,3.8-17.9,8.3-17.9
		C227.1,369.6,231,383,231,387.5L231,387.5z M231,387.5"/>
	<path fill="#30B9D8" d="M222,369.6c4.5,0,9,13.4,9,17.9c0,4.5-3.8,8.3-9,8.3"/>
	<path fill="#5EE0EA" d="M270.6,387.5c0,4.5-3.8,8.3-9,8.3s-9-3.8-9-8.3c0-4.5,3.8-17.9,9-17.9S270.6,383,270.6,387.5L270.6,387.5z
		 M270.6,387.5"/>
	<path fill="#30B9D8" d="M261.7,369.6c4.5,0,9,13.4,9,17.9c0,4.5-3.8,8.3-9,8.3"/>
</g>
</svg>
