<?xml version="1.0" encoding="iso-8859-1"?>
<!-- Generator: Adobe Illustrator 19.0.0, SVG Export Plug-In . SVG Version: 6.00 Build 0)  -->
<svg version="1.1" id="Layer_1" xmlns="http://www.w3.org/2000/svg" xmlns:xlink="http://www.w3.org/1999/xlink" x="0px" y="0px"
	 viewBox="0 0 484.8 484.8" style="enable-background:new 0 0 484.8 484.8;" xml:space="preserve">
<circle style="fill:#93358A;" cx="242.2" cy="248.8" r="216.8"/>
<path style="fill:#601660;" d="M88.6,95.2c84.8-84.8,222.4-84.8,307.2,0s84.8,221.6,0,306.4"/>
<path style="fill:#A3B5B1;" d="M458.2,132.8C458.2,59.2,399,0,325.4,0c-52,0-96.8,29.6-118.4,73.6c-4.8-0.8-9.6-1.6-15.2-1.6
	c-34.4,0-63.2,28-63.2,63.2c0,1.6,0,3.2,0,4c-45.6,4-70.4,44-70.4,92.8v6.4c0,51.2,42.4,92,94.4,92h212.8
	c51.2,0,92.8-40.8,92.8-92.8V208C458.2,184,458.2,157.6,458.2,132.8z"/>
<path style="fill:#7F938F;" d="M458.2,150.4c0-73.6-59.2-132.8-132.8-132.8c-52,0-96.8,29.6-118.4,73.6c-4.8-0.8-9.6-1.6-15.2-1.6
	c-34.4,0-63.2,28-63.2,63.2c0,1.6,0,3.2,0,4c-45.6,4-70.4,26.4-70.4,75.2v6.4c0,51.2,42.4,92,94.4,92h212.8
	c51.2,0,92.8-40.8,92.8-92.8V208C458.2,184,458.2,175.2,458.2,150.4z"/>
<path style="fill:#788785;" d="M154.2,330.4h210.4c52,0,93.6-40.8,93.6-92.8V208c0-24,0-37.6,0-62.4"/>
<g>
	<path style="fill:#A3B5B1;" d="M267.8,152c-4-0.8-8-1.6-12.8-1.6c-24.8,0-44.8,20-44.8,44.8c0,4,0.8,8.8,1.6,12.8
		C216.6,178.4,239,156,267.8,152z"/>
	<path style="fill:#A3B5B1;" d="M344.6,111.2c-4.8-2.4-10.4-4.8-16-5.6c-32.8-6.4-64.8,16-71.2,48.8c-0.8,5.6-0.8,12,0,17.6
		C269.4,134.4,305.4,108.8,344.6,111.2z"/>
	<circle style="fill:#A3B5B1;" cx="103.8" cy="224.8" r="4.8"/>
	<circle style="fill:#A3B5B1;" cx="115" cy="191.2" r="6.4"/>
	<circle style="fill:#A3B5B1;" cx="191.8" cy="127.2" r="2.4"/>
	<circle style="fill:#A3B5B1;" cx="253.4" cy="93.6" r="6.4"/>
	<circle style="fill:#A3B5B1;" cx="305.4" cy="39.2" r="3.2"/>
	<circle style="fill:#A3B5B1;" cx="335.8" cy="49.6" r="9.6"/>
</g>
<polygon style="fill:#FFAA00;" points="408.6,346.4 369.4,346.4 347,378.4 362.2,378.4 343,424.8 406.2,370.4 391,370.4 "/>
<polygon style="fill:#FFBC00;" points="408.6,346.4 377.4,368.8 347,378.4 371.8,378.4 343,424.8 406.2,370.4 391,370.4 "/>
<polygon style="fill:#FFF200;" points="391.8,346.4 369.4,346.4 347,378.4 381.4,378.4 343,424.8 406.2,370.4 372.6,370.4 "/>
<polygon style="fill:#FFDA00;" points="391.8,346.4 374.2,348.8 347,378.4 381.4,378.4 343,424.8 406.2,370.4 367.8,374.4 "/>
<path style="fill:#5EE0EA;" d="M128.6,370.4c0,5.6-4.8,10.4-11.2,10.4c-5.6,0-10.4-4.8-10.4-10.4c0-5.6,4.8-22.4,10.4-22.4
	C123.8,348,128.6,364.8,128.6,370.4z"/>
<path style="fill:#30B9D8;" d="M117.4,348c5.6,0,11.2,16.8,11.2,22.4c0,5.6-4.8,10.4-11.2,10.4"/>
<path style="fill:#5EE0EA;" d="M178.2,370.4c0,5.6-4.8,10.4-11.2,10.4c-5.6,0-10.4-4.8-10.4-10.4c0-5.6,4.8-22.4,10.4-22.4
	S178.2,364.8,178.2,370.4z"/>
<path style="fill:#30B9D8;" d="M167,348c5.6,0,11.2,16.8,11.2,22.4c0,5.6-4.8,10.4-11.2,10.4"/>
<path style="fill:#5EE0EA;" d="M227,370.4c0,5.6-4.8,10.4-11.2,10.4c-5.6,0-11.2-4.8-11.2-10.4c0-5.6,4.8-22.4,11.2-22.4
	S227,364.8,227,370.4z"/>
<path style="fill:#30B9D8;" d="M216.6,348c5.6,0,11.2,16.8,11.2,22.4c0,5.6-4.8,10.4-11.2,10.4"/>
<path style="fill:#5EE0EA;" d="M276.6,370.4c0,5.6-4.8,10.4-11.2,10.4c-5.6,0-10.4-4.8-10.4-10.4c0-5.6,4.8-22.4,10.4-22.4
	C271.8,348,276.6,364.8,276.6,370.4z"/>
<path style="fill:#30B9D8;" d="M265.4,348c5.6,0,11.2,16.8,11.2,22.4c0,5.6-4.8,10.4-11.2,10.4"/>
<path style="fill:#5EE0EA;" d="M326.2,370.4c0,5.6-4.8,10.4-11.2,10.4s-11.2-4.8-11.2-10.4c0-5.6,4.8-22.4,11.2-22.4
	S326.2,364.8,326.2,370.4z"/>
<path style="fill:#30B9D8;" d="M315,348c5.6,0,11.2,16.8,11.2,22.4c0,5.6-4.8,10.4-11.2,10.4"/>
<path style="fill:#5EE0EA;" d="M128.6,422.4c0,5.6-4.8,10.4-11.2,10.4c-5.6,0-10.4-4.8-10.4-10.4c0-5.6,4.8-22.4,10.4-22.4
	C123.8,400,128.6,416.8,128.6,422.4z"/>
<path style="fill:#30B9D8;" d="M117.4,400c5.6,0,11.2,16.8,11.2,22.4c0,5.6-4.8,10.4-11.2,10.4"/>
<path style="fill:#5EE0EA;" d="M178.2,422.4c0,5.6-4.8,10.4-11.2,10.4c-5.6,0-10.4-4.8-10.4-10.4c0-5.6,4.8-22.4,10.4-22.4
	S178.2,416.8,178.2,422.4z"/>
<path style="fill:#30B9D8;" d="M167,400c5.6,0,11.2,16.8,11.2,22.4c0,5.6-4.8,10.4-11.2,10.4"/>
<path style="fill:#5EE0EA;" d="M227,422.4c0,5.6-4.8,10.4-11.2,10.4c-5.6,0-11.2-4.8-11.2-10.4c0-5.6,4.8-22.4,11.2-22.4
	S227,416.8,227,422.4z"/>
<path style="fill:#30B9D8;" d="M216.6,400c5.6,0,11.2,16.8,11.2,22.4c0,5.6-4.8,10.4-11.2,10.4"/>
<path style="fill:#5EE0EA;" d="M276.6,422.4c0,5.6-4.8,10.4-11.2,10.4c-5.6,0-10.4-4.8-10.4-10.4c0-5.6,4.8-22.4,10.4-22.4
	C271.8,400,276.6,416.8,276.6,422.4z"/>
<path style="fill:#30B9D8;" d="M265.4,400c5.6,0,11.2,16.8,11.2,22.4c0,5.6-4.8,10.4-11.2,10.4"/>
<path style="fill:#5EE0EA;" d="M326.2,422.4c0,5.6-4.8,10.4-11.2,10.4s-11.2-4.8-11.2-10.4c0-5.6,4.8-22.4,11.2-22.4
	S326.2,416.8,326.2,422.4z"/>
<path style="fill:#30B9D8;" d="M315,400c5.6,0,11.2,16.8,11.2,22.4c0,5.6-4.8,10.4-11.2,10.4"/>
<path style="fill:#5EE0EA;" d="M128.6,474.4c0,5.6-4.8,10.4-11.2,10.4c-5.6,0-10.4-4.8-10.4-10.4c0-5.6,4.8-22.4,10.4-22.4
	C123.8,452,128.6,468.8,128.6,474.4z"/>
<path style="fill:#30B9D8;" d="M117.4,452c5.6,0,11.2,16.8,11.2,22.4c0,5.6-4.8,10.4-11.2,10.4"/>
<path style="fill:#5EE0EA;" d="M178.2,474.4c0,5.6-4.8,10.4-11.2,10.4c-5.6,0-10.4-4.8-10.4-10.4c0-5.6,4.8-22.4,10.4-22.4
	S178.2,468.8,178.2,474.4z"/>
<path style="fill:#30B9D8;" d="M167,452c5.6,0,11.2,16.8,11.2,22.4c0,5.6-4.8,10.4-11.2,10.4"/>
<path style="fill:#5EE0EA;" d="M227,474.4c0,5.6-4.8,10.4-11.2,10.4c-5.6,0-11.2-4.8-11.2-10.4c0-5.6,4.8-22.4,11.2-22.4
	S227,468.8,227,474.4z"/>
<path style="fill:#30B9D8;" d="M216.6,452c5.6,0,11.2,16.8,11.2,22.4c0,5.6-4.8,10.4-11.2,10.4"/>
<path style="fill:#5EE0EA;" d="M276.6,474.4c0,5.6-4.8,10.4-11.2,10.4c-5.6,0-10.4-4.8-10.4-10.4c0-5.6,4.8-22.4,10.4-22.4
	C271.8,452,276.6,468.8,276.6,474.4z"/>
<path style="fill:#30B9D8;" d="M265.4,452c5.6,0,11.2,16.8,11.2,22.4c0,5.6-4.8,10.4-11.2,10.4"/>
<path style="fill:#5EE0EA;" d="M326.2,474.4c0,5.6-4.8,10.4-11.2,10.4s-11.2-4.8-11.2-10.4c0-5.6,4.8-22.4,11.2-22.4
	S326.2,468.8,326.2,474.4z"/>
<path style="fill:#30B9D8;" d="M315,452c5.6,0,11.2,16.8,11.2,22.4c0,5.6-4.8,10.4-11.2,10.4"/>
<g>
</g>
<g>
</g>
<g>
</g>
<g>
</g>
<g>
</g>
<g>
</g>
<g>
</g>
<g>
</g>
<g>
</g>
<g>
</g>
<g>
</g>
<g>
</g>
<g>
</g>
<g>
</g>
<g>
</g>
</svg>
