<?xml version="1.0" encoding="iso-8859-1"?>
<!-- Generator: Adobe Illustrator 19.0.0, SVG Export Plug-In . SVG Version: 6.00 Build 0)  -->
<svg version="1.1" id="Layer_1" xmlns="http://www.w3.org/2000/svg" xmlns:xlink="http://www.w3.org/1999/xlink" x="0px" y="0px"
	 viewBox="0 0 490.4 490.4" style="enable-background:new 0 0 490.4 490.4;" xml:space="preserve">
<circle style="fill:#93358A;" cx="245.1" cy="248" r="226.4"/>
<path style="fill:#601660;" d="M85.1,88c88-88.8,232-88.8,320,0c88.8,88.8,88.8,232,0,320.8"/>
<path style="fill:#5EE0EA;" d="M385.9,93.6c0-52-42.4-93.6-94.4-93.6c-36.8,0-68,20.8-84,52c-3.2-0.8-7.2-1.6-10.4-1.6
	c-24.8,0-44.8,20-44.8,44.8c0,0.8,0,1.6,0,3.2c-32,3.2-49.6,32-49.6,65.6v4.8c0,36.8,29.6,66.4,66.4,66.4h150.4
	c36.8,0,66.4-29.6,66.4-66.4V148C387.5,129.6,385.9,111.2,385.9,93.6z"/>
<path style="fill:#30B9D8;" d="M385.9,106.4c0-52-42.4-93.6-94.4-93.6c-36.8,0-68,20.8-84,52c-3.2-0.8-7.2-1.6-10.4-1.6
	c-24.8,0-44.8,20-44.8,44.8c0,0.8,0,1.6,0,3.2c-32,3.2-49.6,19.2-49.6,53.6v4.8c0,36.8,29.6,66.4,66.4,66.4h150.4
	c36.8,0,66.4-29.6,66.4-66.4v-20.8C387.5,129.6,385.9,124,385.9,106.4z"/>
<path style="fill:#27AAC9;" d="M169.9,234.4h150.4c36.8,0,66.4-29.6,66.4-66.4v-20.8c0.8-16.8,0-23.2,0-40.8"/>
<g>
	<path style="fill:#5EE0EA;" d="M251.5,107.2c-2.4-0.8-5.6-1.6-8.8-1.6c-17.6,0-31.2,14.4-31.2,31.2c0,3.2,0.8,5.6,1.6,8.8
		C215.5,126.4,231.5,109.6,251.5,107.2z"/>
	<path style="fill:#5EE0EA;" d="M305.9,78.4c-3.2-1.6-7.2-3.2-11.2-4c-23.2-4-45.6,11.2-50.4,34.4c-0.8,4-0.8,8,0,12
		C252.3,94.4,277.9,76.8,305.9,78.4z"/>
	<path style="fill:#5EE0EA;" d="M138.7,158.4c0,1.6-1.6,3.2-3.2,3.2c-1.6,0-3.2-1.6-3.2-3.2c0-1.6,1.6-3.2,3.2-3.2
		C137.1,155.2,138.7,156.8,138.7,158.4z"/>
	<circle style="fill:#5EE0EA;" cx="143.5" cy="134.4" r="4"/>
	<circle style="fill:#5EE0EA;" cx="197.9" cy="90.4" r="1.6"/>
	<path style="fill:#5EE0EA;" d="M245.9,66.4c0,2.4-2.4,4.8-4.8,4.8c-2.4,0-4.8-2.4-4.8-4.8s2.4-4.8,4.8-4.8
		C244.3,61.6,245.9,63.2,245.9,66.4z"/>
	<circle style="fill:#5EE0EA;" cx="278.7" cy="27.2" r="2.4"/>
	<path style="fill:#5EE0EA;" d="M306.7,34.4c0,4-3.2,7.2-7.2,7.2s-7.2-3.2-7.2-7.2s3.2-7.2,7.2-7.2
		C303.5,27.2,306.7,30.4,306.7,34.4z"/>
</g>
<path style="fill:#C7F4FF;" d="M193.9,332.8l-11.2-6.4l6.4-1.6c1.6-0.8,2.4-2.4,2.4-4c-0.8-1.6-2.4-2.4-4-2.4l-12,3.2l0,0l-5.6-3.2
	v-32l5.6-3.2l0,0l12,3.2h0.8c1.6,0,2.4-0.8,3.2-2.4s-0.8-3.2-2.4-4l-6.4-1.6l11.2-6.4c1.6-0.8,2.4-3.2,1.6-4.8s-3.2-2.4-4.8-1.6
	l-11.2,6.4l1.6-6.4c0.8-1.6-0.8-3.2-2.4-4c-1.6-0.8-3.2,0.8-4,2.4l-3.2,12l0,0l-5.6,3.2l-28-16v-6.4l0,0l8.8-8.8
	c1.6-1.6,1.6-3.2,0-4.8c-1.6-1.6-3.2-1.6-4.8,0l-4.8,4.8v-12.8c0-1.6-1.6-3.2-3.2-3.2c-1.6,0-3.2,1.6-3.2,3.2V248l-4-3.2
	c-1.6-1.6-3.2-1.6-4.8,0s-1.6,3.2,0,4.8l8.8,8.8l0,0v6.4l-28,16l-5.6-3.2l0,0l-3.2-12c-0.8-1.6-2.4-2.4-4-2.4
	c-1.6,0.8-2.4,2.4-2.4,4l1.6,6.4l-11.2-6.4c-1.6-0.8-3.2,0-4.8,1.6s0,3.2,0.8,4.8l11.2,6.4l-6.4,1.6c-1.6,0.8-2.4,2.4-2.4,4
	s1.6,2.4,3.2,2.4h0.8l12-3.2l0,0l5.6,3.2v32l-5.6,3.2l0,0l-12-3.2c-1.6-0.8-3.2,0.8-4,2.4s0.8,3.2,2.4,4l6.4,1.6l-9.6,4.8
	c-1.6,0.8-2.4,3.2-0.8,4.8c0.8,0.8,1.6,1.6,3.2,1.6c0.8,0,0.8,0,1.6-0.8l11.2-6.4l-1.6,6.4c-0.8,1.6,0.8,3.2,2.4,4h0.8
	c1.6,0,2.4-0.8,3.2-2.4l3.2-12l0,0l5.6-3.2l28,16v6.4l0,0l-8.8,8.8c-1.6,1.6-1.6,3.2,0,4.8c0.8,0.8,1.6,0.8,2.4,0.8
	c0.8,0,1.6,0,2.4-0.8l4.8-4.8v12.8c0,1.6,1.6,3.2,3.2,3.2c1.6,0,3.2-1.6,3.2-3.2V356l4.8,4.8c0.8,0.8,1.6,0.8,2.4,0.8
	c0.8,0,1.6,0,2.4-0.8c1.6-1.6,1.6-3.2,0-4.8l-8.8-8.8l0,0v-6.4l28-16l5.6,3.2l0,0l3.2,12c0,1.6,1.6,2.4,3.2,2.4h0.8
	c1.6-0.8,2.4-2.4,2.4-4l-1.6-6.4l11.2,6.4c0.8,0,0.8,0.8,1.6,0.8s2.4-0.8,3.2-1.6C195.5,335.2,195.5,333.6,193.9,332.8z
	 M161.9,314.4l-20.8-12l20.8-12V314.4z M158.7,284.8l-21.6,12V272L158.7,284.8z M131.5,272v24.8l-21.6-12L131.5,272z M106.7,290.4
	l20.8,12l-20.8,12C106.7,314.4,106.7,290.4,106.7,290.4z M109.9,320l21.6-12v24.8L109.9,320z M137.9,332.8V308l21.6,12L137.9,332.8z
	"/>
<path style="fill:#B5EDF7;" d="M193.9,332.8l-11.2-6.4l6.4-1.6c1.6-0.8,2.4-2.4,2.4-4c-0.8-1.6-2.4-2.4-4-2.4l-12,3.2l0,0l-5.6-3.2
	v-32l5.6-3.2l0,0l12,3.2h0.8c1.6,0,2.4-0.8,3.2-2.4s-0.8-3.2-2.4-4l-6.4-1.6l11.2-6.4c1.6-0.8,2.4-3.2,1.6-4.8s-3.2-2.4-4.8-1.6
	l-11.2,6.4l1.6-6.4c0.8-1.6-0.8-3.2-2.4-4c-1.6-0.8-3.2,0.8-4,2.4l-3.2,12l0,0l-5.6,3.2l-28-16v-6.4l0,0l8.8-8.8
	c1.6-1.6,1.6-3.2,0-4.8c-1.6-1.6-3.2-1.6-4.8,0l-4.8,4.8v-12.8c0-1.6-1.6-3.2-3.2-3.2l0,0v138.4l0,0c1.6,0,3.2-1.6,3.2-3.2v-12.8
	l4.8,4.8c0.8,0.8,1.6,0.8,2.4,0.8c0.8,0,1.6,0,2.4-0.8c1.6-1.6,1.6-3.2,0-4.8l-8.8-8.8l0,0v-6.4l28-16l5.6,3.2l0,0l3.2,12
	c0,1.6,1.6,2.4,3.2,2.4h0.8c1.6-0.8,2.4-2.4,2.4-4l-1.6-6.4l11.2,6.4c0.8,0,0.8,0.8,1.6,0.8s2.4-0.8,3.2-1.6
	C195.5,335.2,195.5,333.6,193.9,332.8z M137.9,272l21.6,12l-21.6,12V272z M137.9,332.8V308l21.6,12L137.9,332.8z M161.9,314.4
	l-20.8-12l20.8-12V314.4z"/>
<path style="fill:#C7F4FF;" d="M281.1,466.4l-6.4-4l4-0.8c0.8,0,1.6-1.6,1.6-2.4s-1.6-1.6-2.4-1.6l-8.8,1.6l0,0l-3.2-1.6v-19.2
	l3.2-1.6l0,0l7.2,1.6c0,0,0,0,0.8,0s1.6-0.8,1.6-1.6c0-0.8,0-2.4-1.6-2.4l-4-0.8l6.4-4c0.8-0.8,1.6-1.6,0.8-2.4
	c-0.8-0.8-1.6-1.6-2.4-0.8l-6.4,4l0.8-4c0-0.8,0-2.4-1.6-2.4c-0.8,0-2.4,0-2.4,1.6l-1.6,7.2l0,0l-3.2,1.6l-16.8-9.6v-4l0,0l5.6-5.6
	c0.8-0.8,0.8-2.4,0-2.4c-0.8-0.8-2.4-0.8-2.4,0l-2.4,2.4v-8c0-0.8-0.8-1.6-1.6-1.6c-0.8,0-1.6,0.8-1.6,1.6v8l-4-2.4
	c-0.8-0.8-2.4-0.8-2.4,0c-0.8,0.8-0.8,2.4,0,2.4l5.6,5.6l0,0v4l-16.8,9.6l-3.2-1.6l0,0l-2.4-7.2c0-0.8-1.6-1.6-2.4-1.6
	c-0.8,0-1.6,1.6-1.6,2.4l0.8,4l-6.4-4c-0.8-0.8-2.4,0-2.4,0.8c-0.8,0.8,0,2.4,0.8,2.4l6.4,4l-4,0.8c-0.8,0-1.6,1.6-1.6,2.4
	s0.8,1.6,1.6,1.6c0,0,0,0,0.8,0l8-1.6l0,0l3.2,1.6v19.2l-3.2,1.6l0,0l-7.2-1.6c-0.8,0-2.4,0-2.4,1.6c0,0.8,0,2.4,1.6,2.4l4,0.8
	l-6.4,4c-0.8,0.8-1.6,1.6-0.8,2.4c0,0.8,0.8,0.8,1.6,0.8h0.8l6.4-4l-0.8,4c0,0.8,0,2.4,1.6,2.4c0,0,0,0,0.8,0s1.6-0.8,1.6-1.6
	l2.4-7.2l0,0l3.2-1.6l16.8,9.6v4l0,0l-5.6,5.6c-0.8,0.8-0.8,2.4,0,2.4c0,0,0.8,0.8,1.6,0.8s0.8,0,1.6-0.8l2.4-2.4v8
	c0,0.8,0.8,1.6,1.6,1.6s1.6-0.8,1.6-1.6v-8l2.4,2.4c0,0,0.8,0.8,1.6,0.8c0.8,0,0.8,0,1.6-0.8c0.8-0.8,0.8-2.4,0-2.4l-5.6-5.6l0,0v-4
	l16.8-9.6l3.2,1.6l0,0l1.6,7.2c0,0.8,0.8,1.6,1.6,1.6c0,0,0,0,0.8,0s1.6-1.6,1.6-2.4l-0.8-4l6.4,4h0.8c0.8,0,1.6,0,1.6-0.8
	C281.9,468,281.9,466.4,281.1,466.4z M261.9,455.2l-12.8-7.2l12.8-7.2V455.2z M259.5,436.8l-12.8,8v-14.4L259.5,436.8z M243.5,429.6
	v15.2l-12.8-8L243.5,429.6z M228.3,440.8l12.8,7.2l-12.8,7.2V440.8z M230.7,458.4l12.8-7.2v14.4L230.7,458.4z M246.7,466.4V452
	l12.8,7.2L246.7,466.4z"/>
<path style="fill:#B5EDF7;" d="M281.1,466.4l-6.4-4l4-0.8c0.8,0,1.6-1.6,1.6-2.4s-1.6-1.6-2.4-1.6l-8.8,1.6l0,0l-3.2-1.6v-19.2
	l3.2-1.6l0,0l7.2,1.6c0,0,0,0,0.8,0s1.6-0.8,1.6-1.6c0-0.8,0-2.4-1.6-2.4l-4-0.8l6.4-4c0.8-0.8,1.6-1.6,0.8-2.4
	c-0.8-0.8-1.6-1.6-2.4-0.8l-6.4,4l0.8-4c0-0.8,0-2.4-1.6-2.4c-0.8,0-2.4,0-2.4,1.6l-1.6,7.2l0,0l-3.2,1.6l-16.8-9.6v-4l0,0l5.6-5.6
	c0.8-0.8,0.8-2.4,0-2.4c-0.8-0.8-2.4-0.8-2.4,0l-2.4,2.4v-8c0-0.8-0.8-1.6-1.6-1.6l0,0v84l0,0c0.8,0,1.6-0.8,1.6-1.6v-8l2.4,2.4
	c0,0,0.8,0.8,1.6,0.8c0.8,0,0.8,0,1.6-0.8c0.8-0.8,0.8-2.4,0-2.4l-5.6-5.6l0,0v-4l16.8-9.6l3.2,1.6l0,0l1.6,7.2
	c0,0.8,0.8,1.6,1.6,1.6c0,0,0,0,0.8,0s1.6-1.6,1.6-2.4l-0.8-4l6.4,4h0.8c0.8,0,1.6,0,1.6-0.8C281.9,468,281.9,466.4,281.1,466.4z
	 M246.7,429.6l12.8,7.2l-12.8,8V429.6z M246.7,466.4V452l12.8,7.2L246.7,466.4z M261.9,455.2l-12.8-7.2l12.8-7.2V455.2z"/>
<path style="fill:#C7F4FF;" d="M293.9,243.2l-8.8,1.6l2.4-4c0.8-0.8,0-2.4-0.8-3.2c-0.8-0.8-2.4,0-3.2,0.8l-4.8,8l0,0l-4.8,1.6
	l-16-16l0.8-4.8l0,0l8-4.8c0,0,0,0,0.8,0c0.8-0.8,0.8-1.6,0-2.4s-2.4-1.6-3.2-0.8l-4,2.4l2.4-8.8c0-1.6,0-2.4-1.6-3.2
	c-1.6,0-2.4,0-3.2,1.6l-0.8,9.6l-2.4-4c-0.8-0.8-2.4-1.6-3.2-0.8c-0.8,0.8-1.6,2.4-0.8,3.2l4.8,8l0,0l-0.8,4l-21.6,5.6l-3.2-3.2l0,0
	v-8.8c0-1.6-0.8-2.4-2.4-2.4c-1.6,0-2.4,0.8-2.4,2.4v4l-6.4-6.4c-0.8-0.8-2.4-0.8-3.2,0c-0.8,0.8-0.8,2.4,0,3.2l6.4,6.4h-4
	c-1.6,0-2.4,0.8-2.4,2.4c0,1.6,0.8,2.4,2.4,2.4h8.8l0,0l3.2,3.2l-5.6,21.6l-4,0.8l0,0l-8-4.8c-0.8-0.8-2.4,0-3.2,0.8s0,2.4,0.8,3.2
	l4,2.4l-8.8,2.4c-1.6,0-1.6,1.6-1.6,2.4c0,1.6,1.6,1.6,3.2,1.6l8.8-2.4l-2.4,4c-0.8,0.8,0,2.4,0.8,3.2c0.8,0.8,2.4,0,2.4,0
	s0,0,0-0.8l4.8-8l0,0l4.8-1.6l16,16l-1.6,4.8l0,0l-8,4.8c-0.8,0.8-1.6,2.4-0.8,3.2c0.8,0.8,2.4,1.6,3.2,0.8l4-2.4l-3.2,8.8
	c0,1.6,0,2.4,1.6,2.4c0.8,0,1.6,0,2.4-0.8l0.8-0.8l2.4-8.8l2.4,4c0.8,0.8,2.4,1.6,3.2,0.8c0,0,0,0,0.8,0c0.8-0.8,0.8-1.6,0-2.4
	l-4.8-8l0,0l0.8-4l21.6-5.6l3.2,3.2l0,0v8.8c0,1.6,0.8,2.4,2.4,2.4c0.8,0,1.6,0,1.6-0.8c0.8-0.8,0.8-0.8,0.8-1.6v-4.8l6.4,6.4
	c0.8,0.8,2.4,0.8,3.2,0c0.8-0.8,0.8-2.4,0-3.2l-6.4-6.4h4c0.8,0,1.6,0,1.6-0.8c0.8-0.8,0.8-0.8,0.8-1.6c0-1.6-0.8-2.4-2.4-2.4h-8.8
	l0,0l-3.2-3.2l5.6-21.6l4-0.8l0,0l8,4.8c0.8,0.8,2.4,0,2.4,0s0,0,0-0.8c0.8-0.8,0-2.4-0.8-3.2l-4-2.4l8.8-2.4c0.8,0,0.8,0,0.8-0.8
	c0.8-0.8,0.8-1.6,0.8-2.4C296.3,243.2,294.7,242.4,293.9,243.2z M269.1,249.6l-16,4l4.8-16.8L269.1,249.6z M253.1,236l-4.8,16.8
	l-12-12L253.1,236z M233.1,244l12,12l-16,4L233.1,244z M229.9,264.8l16.8-4.8l-4.8,16.8L229.9,264.8z M246.7,277.6l4.8-16.8l12,12
	L246.7,277.6z M265.9,270.4l-12-12l16.8-4.8L265.9,270.4z"/>
<path style="fill:#B5EDF7;" d="M293.9,243.2l-8.8,1.6l2.4-4c0.8-0.8,0-2.4-0.8-3.2c-0.8-0.8-2.4,0-3.2,0.8l-4.8,8l0,0l-4.8,1.6
	l-16-16l0.8-4.8l0,0l8-4.8c0,0,0,0,0.8,0c0.8-0.8,0.8-1.6,0-2.4s-2.4-1.6-3.2-0.8l-4,2.4l2.4-8.8c0-1.6,0-2.4-1.6-3.2
	c-1.6,0-2.4,0-3.2,1.6l-0.8,9.6l-2.4-4c-0.8-0.8-2.4-1.6-3.2-0.8c-0.8,0.8-1.6,2.4-0.8,3.2l4.8,8l0,0l-0.8,4l-21.6,5.6l-3.2-3.2l0,0
	v-8.8c0-1.6-0.8-2.4-2.4-2.4c-1.6,0-2.4,0.8-2.4,2.4v4l-6.4-6.4c-0.8-0.8-2.4-0.8-3.2,0l0,0l68.8,68.8l0,0c0.8-0.8,0.8-2.4,0-3.2
	l-6.4-6.4h4c0.8,0,1.6,0,1.6-0.8c0.8-0.8,0.8-0.8,0.8-1.6c0-1.6-0.8-2.4-2.4-2.4h-8.8l0,0l-3.2-3.2l5.6-21.6l4-0.8l0,0l8,4.8
	c0.8,0.8,2.4,0,2.4,0s0,0,0-0.8c0.8-0.8,0-2.4-0.8-3.2l-4-2.4l8.8-2.4c0.8,0,0.8,0,0.8-0.8c0.8-0.8,0.8-1.6,0.8-2.4
	C296.3,243.2,294.7,242.4,293.9,243.2z M236.3,240.8l16.8-4.8l-4.8,16.8L236.3,240.8z M265.9,270.4l-12-12l16.8-4.8L265.9,270.4z
	 M269.1,249.6l-16,4l4.8-16.8L269.1,249.6z"/>
<path style="fill:#C7F4FF;" d="M390.7,287.2l-6.4-3.2l3.2-0.8c0.8,0,1.6-1.6,1.6-2.4s-1.6-1.6-2.4-1.6l-6.4,1.6l0,0l-3.2-1.6v-17.6
	l3.2-1.6l0,0l6.4,1.6c0,0,0,0,0.8,0s1.6-0.8,1.6-1.6c0-0.8,0-1.6-1.6-2.4l-3.2-0.8l6.4-3.2c0.8-0.8,0.8-1.6,0.8-2.4
	c-0.8-0.8-1.6-0.8-2.4-0.8l-6.4,3.2l0.8-3.2c0-0.8,0-1.6-1.6-2.4c-0.8,0-1.6,0-2.4,1.6l-1.6,6.4l0,0l-3.2,1.6l-15.2-8.8v-3.2l0,0
	l4.8-4.8c0.8-0.8,0.8-1.6,0-2.4c-0.8-0.8-1.6-0.8-2.4,0l-2.4,2.4v-7.2c0-0.8-0.8-1.6-1.6-1.6c-0.8,0-1.6,0.8-1.6,1.6v7.2l-2.4-2.4
	c-0.8-0.8-1.6-0.8-2.4,0c-0.8,0.8-0.8,1.6,0,2.4l4.8,4.8l0,0v3.2l-15.2,10.4l-3.2-1.6l0,0l-1.6-6.4c0-0.8-1.6-1.6-2.4-1.6
	s-1.6,1.6-1.6,2.4l0.8,3.2l-6.4-3.2c-0.8-0.8-1.6,0-2.4,0.8s0,1.6,0.8,2.4l6.4,3.2l-3.2,0.8c-0.8,0-1.6,1.6-1.6,2.4s0.8,1.6,1.6,1.6
	c0,0,0,0,0.8,0l6.4-1.6l0,0l3.2,1.6v17.6l-3.2,1.6l0,0l-6.4-1.6c-0.8,0-1.6,0-2.4,1.6c0,0.8,0,1.6,1.6,2.4l3.2,0.8l-6.4,3.2
	c0-0.8,0,0,0,0.8s0.8,0.8,1.6,0.8h0.8l6.4-3.2l-0.8,3.2c0,0.8,0,1.6,1.6,2.4c0,0,0,0,0.8,0s1.6-0.8,1.6-1.6l1.6-6.4l0,0l3.2-1.6
	l15.2,8.8v3.2l0,0l-4.8,4.8c-0.8,0.8-0.8,1.6,0,2.4c0,0,0.8,0.8,1.6,0.8c0.8,0,0.8,0,1.6-0.8l2.4-2.4v7.2c0,0.8,0.8,1.6,1.6,1.6
	c0.8,0,1.6-0.8,1.6-1.6V300l2.4,2.4c0,0,0.8,0.8,1.6,0.8c0.8,0,0.8,0,1.6-0.8c0.8-0.8,0.8-1.6,0-2.4l-4.8-4.8l0,0V292l15.2-8.8
	l3.2,1.6l0,0l1.6,6.4c0,0.8,0.8,1.6,1.6,1.6c0,0,0,0,0.8,0s1.6-1.6,1.6-2.4l-0.8-3.2l6.4,3.2h0.8c0.8,0,1.6,0,1.6-0.8
	C392.3,288.8,391.5,288,390.7,287.2z M373.9,277.6l-12-6.4l12-6.4V277.6z M371.5,260.8l-12,6.4v-13.6L371.5,260.8z M356.3,254.4V268
	l-11.2-7.2L356.3,254.4z M343.5,264l12,6.4l-12,6.4V264z M345.1,280.8l12-6.4V288L345.1,280.8z M360.3,287.2v-13.6l12,6.4
	L360.3,287.2z"/>
<path style="fill:#B5EDF7;" d="M390.7,287.2l-6.4-3.2l3.2-0.8c0.8,0,1.6-1.6,1.6-2.4s-1.6-1.6-2.4-1.6l-6.4,1.6l0,0l-3.2-1.6v-17.6
	l3.2-1.6l0,0l6.4,1.6c0,0,0,0,0.8,0s1.6-0.8,1.6-1.6c0-0.8,0-1.6-1.6-2.4l-3.2-0.8l6.4-3.2c0.8-0.8,0.8-1.6,0.8-2.4
	c-0.8-0.8-1.6-0.8-2.4-0.8l-6.4,3.2l0.8-3.2c0-0.8,0-1.6-1.6-2.4c-0.8,0-1.6,0-2.4,1.6l-1.6,6.4l0,0l-3.2,1.6l-15.2-8.8v-3.2l0,0
	l4.8-4.8c0.8-0.8,0.8-1.6,0-2.4c-0.8-0.8-1.6-0.8-2.4,0l-2.4,2.4v-7.2c0-0.8-0.8-1.6-1.6-1.6l0,0v76.8l0,0c0.8,0,1.6-0.8,1.6-1.6
	V300l2.4,2.4c0,0,0.8,0.8,1.6,0.8c0.8,0,0.8,0,1.6-0.8c0.8-0.8,0.8-1.6,0-2.4l-4.8-4.8l0,0V292l15.2-8.8l3.2,1.6l0,0l1.6,6.4
	c0,0.8,0.8,1.6,1.6,1.6c0,0,0,0,0.8,0s1.6-1.6,1.6-2.4l-0.8-3.2l6.4,3.2h0.8c0.8,0,1.6,0,1.6-0.8C392.3,288.8,391.5,288,390.7,287.2
	z M360.3,254.4l12,6.4l-12,6.4V254.4z M360.3,287.2v-13.6l12,6.4L360.3,287.2z M373.9,277.6l-12-6.4l12-6.4V277.6z"/>
<path style="fill:#C7F4FF;" d="M175.5,424l-1.6-4.8l2.4,1.6c0.8,0,1.6,0,1.6-0.8s0-1.6-0.8-1.6l-4-3.2l0,0l-0.8-2.4l8.8-8.8l2.4,0.8
	l0,0l2.4,4.8l0,0c0.8,0.8,0.8,0.8,1.6,0c0.8,0,0.8-0.8,0.8-1.6l-1.6-2.4l4.8,1.6c0.8,0,1.6,0,1.6-0.8s0-1.6-0.8-1.6l-4.8-1.6
	l2.4-1.6c0.8,0,0.8-0.8,0.8-1.6c0-0.8-0.8-0.8-1.6-0.8l-4.8,2.4l0,0l-2.4-0.8l-3.2-12l1.6-1.6l0,0h4.8c0.8,0,1.6-0.8,1.6-1.6
	s-0.8-1.6-1.6-1.6h-2.4l4-4c0.8-0.8,0.8-1.6,0-1.6c-0.8-0.8-1.6-0.8-1.6,0l-4,4V380c0-0.8-0.8-1.6-1.6-1.6s-1.6,0.8-1.6,1.6v4.8l0,0
	l-1.6,1.6l-12.8-3.2l0-2.4l0,0l2.4-4.8c0-0.8,0-1.6-0.8-1.6s-1.6,0-1.6,0.8l-1.6,2.4l-0.8-4.8c0-0.8-0.8-0.8-1.6-0.8
	s-0.8,0.8-0.8,1.6l1.6,4.8l-2.4-1.6c-0.8,0-1.6,0-1.6,0.8s0,0.8,0,1.6l0,0l4.8,2.4l0,0l0.8,2.4l-8.8,8.8l-2.4-0.8l0,0l-2.4-4.8
	c0-0.8-0.8-0.8-1.6-0.8s-0.8,0.8-0.8,1.6l1.6,2.4l-4.8-1.6c-0.8,0-1.6,0-1.6,0.8s0,0.8,0,1.6c0,0,0,0,0.8,0l4.8,1.6l-2.4,1.6
	c-0.8,0-0.8,0.8-0.8,1.6l0,0c0.8,0.8,0.8,0.8,1.6,0l4.8-2.4l0,0l2.4,0.8l3.2,12.8l-1.6,1.6l0,0h-4.8c-0.8,0-1.6,0.8-1.6,1.6v0.8h0.8
	h2.4l-4,4c-0.8,0.8-0.8,1.6,0,1.6s1.6,0.8,1.6,0l4-4v2.4v0.8h0.8c0.8,0,1.6-0.8,1.6-1.6v-4.8l0,0l1.6-1.6l12.8,3.2l0.8,2.4l0,0
	l-2.4,7.2c0,0.8,0,0.8,0,1.6l0,0c0.8,0,1.6,0,1.6-0.8l1.6-2.4l1.6,4.8v0.8c0,0,0.8,0.8,1.6,0C174.7,425.6,175.5,424.8,175.5,424z
	 M171.5,409.6l-2.4-9.6l9.6,2.4L171.5,409.6z M179.5,400.8l-9.6-2.4l7.2-7.2L179.5,400.8z M174.7,388.8l-7.2,7.2l-2.4-9.6
	L174.7,388.8z M162.7,387.2l2.4,9.6l-9.6-2.4L162.7,387.2z M154.7,396.8l9.6,2.4l-7.2,7.2L154.7,396.8z M159.5,408l7.2-7.2l2.4,9.6
	L159.5,408z"/>
<path style="fill:#B5EDF7;" d="M175.5,424l-1.6-4.8l2.4,1.6c0.8,0,1.6,0,1.6-0.8s0-1.6-0.8-1.6l-4-3.2l0,0l-0.8-2.4l8.8-8.8l2.4,0.8
	l0,0l2.4,4.8l0,0c0.8,0.8,0.8,0.8,1.6,0c0.8,0,0.8-0.8,0.8-1.6l-1.6-2.4l4.8,1.6c0.8,0,1.6,0,1.6-0.8s0-1.6-0.8-1.6l-4.8-1.6
	l2.4-1.6c0.8,0,0.8-0.8,0.8-1.6c0-0.8-0.8-0.8-1.6-0.8l-4.8,2.4l0,0l-2.4-0.8l-3.2-12l1.6-1.6l0,0h4.8c0.8,0,1.6-0.8,1.6-1.6
	s-0.8-1.6-1.6-1.6h-2.4l4-4c0.8-0.8,0.8-1.6,0-1.6l0,0l-39.2,39.2l0,0c0.8,0.8,1.6,0.8,1.6,0l4-4v2.4v0.8h0.8c0.8,0,1.6-0.8,1.6-1.6
	v-4.8l0,0l1.6-1.6l12.8,3.2l0.8,2.4l0,0l-3.2,6.4c0,0.8,0,0.8,0,1.6l0,0c0.8,0,1.6,0,1.6-0.8l1.6-2.4l1.6,4.8v0.8c0,0,0.8,0.8,1.6,0
	C174.7,425.6,175.5,424.8,175.5,424z M176.3,391.2l2.4,9.6l-9.6-2.4L176.3,391.2z M159.5,408l7.2-7.2l2.4,9.6L159.5,408z
	 M171.5,409.6l-2.4-9.6l9.6,2.4L171.5,409.6z"/>
<path style="fill:#C7F4FF;" d="M251.5,386.4l-1.6-4.8l2.4,1.6c0.8,0,1.6,0,1.6-0.8s0-1.6-0.8-1.6l-4.8-2.4l0,0l-0.8-2.4l8.8-8.8
	l2.4,0.8l0,0l2.4,4.8l0,0c0.8,0.8,0.8,0.8,1.6,0c0.8,0,0.8-0.8,0.8-1.6l-1.6-2.4l4.8,1.6c0.8,0,1.6,0,1.6-0.8s0-1.6-0.8-1.6
	l-4.8-1.6l2.4-1.6c0.8,0,0.8-0.8,0.8-1.6c0-0.8-0.8-0.8-1.6-0.8l-4,2.4l0,0l-2.4-0.8l-3.2-12.8l1.6-1.6l0,0h4.8
	c0.8,0,1.6-0.8,1.6-1.6c0-0.8-0.8-1.6-1.6-1.6h-2.4l4-4c0.8-0.8,0.8-1.6,0-1.6c0,0-1.6,0-1.6,0.8l-4,4v-2.4c0-0.8-0.8-1.6-1.6-1.6
	c-0.8,0-1.6,0.8-1.6,1.6v4.8l0,0l-0.8,1.6l-12.8-3.2l-0.8-2.4l0,0l2.4-4.8c0-0.8,0-1.6-0.8-1.6s-1.6,0-1.6,0.8l-1.6,2.4l-0.8-5.6
	c0-0.8-0.8-0.8-1.6-0.8s-0.8,0.8-0.8,1.6l1.6,4.8l-2.4-1.6c-0.8,0-1.6,0-1.6,0.8s0,0.8,0,1.6l0,0l4.8,2.4l0,0l0.8,2.4l-8.8,9.6
	l-2.4-0.8l0,0l-2.4-4.8c0-0.8-0.8-0.8-1.6-0.8s-0.8,0.8-0.8,1.6l1.6,2.4l-4.8-1.6c-0.8,0-1.6,0-1.6,0.8s0,0.8,0,1.6c0,0,0,0,0.8,0
	l4.8,1.6l-2.4,1.6c-0.8,0-0.8,0.8-0.8,1.6l0,0c0,0.8,0.8,0.8,1.6,0l4.8-2.4l0,0l2.4,0.8l3.2,12.8l-1.6,2.4l0,0h-4.8
	c-0.8,0-1.6,0.8-1.6,1.6v0.8h0.8h2.4l-4,4c-0.8,0.8-0.8,1.6,0,1.6c0.8,0.8,1.6,0.8,1.6,0l4-4v2.4v0.8h0.8c0.8,0,1.6-0.8,1.6-1.6
	v-4.8l0,0l1.6-1.6l12.8,3.2l0.8,2.4l0,0l-2.4,4.8c0,0.8,0,0.8,0,1.6l0,0c0.8,0,1.6,0,1.6-0.8l1.6-2.4l1.6,4.8v0.8c0,0,0.8,0.8,1.6,0
	C250.7,388,251.5,387.2,251.5,386.4z M247.5,372.8l-2.4-9.6l9.6,2.4L247.5,372.8z M255.5,363.2l-9.6-2.4l7.2-7.2L255.5,363.2z
	 M250.7,352l-7.2,7.2l-2.4-9.6L250.7,352z M238.7,349.6l2.4,9.6l-9.6-2.4L238.7,349.6z M230.7,359.2l9.6,2.4l-7.2,7.2L230.7,359.2z
	 M235.5,370.4l7.2-7.2l2.4,9.6L235.5,370.4z"/>
<path style="fill:#B5EDF7;" d="M251.5,386.4l-1.6-4.8l2.4,1.6c0.8,0,1.6,0,1.6-0.8s0-1.6-0.8-1.6l-4.8-2.4l0,0l-0.8-2.4l8.8-8.8
	l2.4,0.8l0,0l2.4,4.8l0,0c0.8,0.8,0.8,0.8,1.6,0c0.8,0,0.8-0.8,0.8-1.6l-1.6-2.4l4.8,1.6c0.8,0,1.6,0,1.6-0.8s0-1.6-0.8-1.6
	l-4.8-1.6l2.4-1.6c0.8,0,0.8-0.8,0.8-1.6c0-0.8-0.8-0.8-1.6-0.8l-4,2.4l0,0l-2.4-0.8l-3.2-12.8l1.6-1.6l0,0h4.8
	c0.8,0,1.6-0.8,1.6-1.6c0-0.8-0.8-1.6-1.6-1.6h-2.4l4-4c0.8-0.8,0.8-1.6,0-1.6l0,0l-39.2,40l0,0c0.8,0.8,1.6,0.8,1.6,0l4-4v2.4v0.8
	h0.8c0.8,0,1.6-0.8,1.6-1.6v-4.8l0,0l1.6-1.6l12.8,3.2l0.8,2.4l0,0l-2.4,4.8c0,0.8,0,0.8,0,1.6l0,0c0.8,0,1.6,0,1.6-0.8l1.6-2.4
	l1.6,4.8v0.8c0,0,0.8,0.8,1.6,0C250.7,388,251.5,387.2,251.5,386.4z M252.3,353.6l2.4,9.6l-9.6-2.4L252.3,353.6z M235.5,370.4
	l7.2-7.2l2.4,9.6L235.5,370.4z M247.5,372.8l-2.4-9.6l9.6,2.4L247.5,372.8z"/>
<path style="fill:#C7F4FF;" d="M329.9,383.2l2.4-4l0.8,2.4c0,0.8,0.8,0.8,1.6,0.8c0.8,0,0.8-0.8,0.8-1.6l-1.6-4.8l0,0l1.6-2.4h12
	l1.6,2.4l0,0l-2.4,4.8l0,0c0,0.8,0,0.8,0.8,0.8s1.6,0,1.6-0.8l0.8-2.4l2.4,4c0,0.8,0.8,0.8,1.6,0.8c0.8,0,0.8-0.8,0.8-1.6l-2.4-4
	l2.4,0.8c0.8,0,1.6,0,1.6-0.8s0-1.6-0.8-1.6l-4.8-1.6l0,0l-1.6-1.6l5.6-10.4h2.4l0,0l3.2,3.2c0.8,0.8,1.6,0.8,1.6,0
	c0.8-0.8,0.8-1.6,0-1.6l-1.6-1.6h4.8c0.8,0,1.6-0.8,1.6-1.6c0-0.8-0.8-1.6-1.6-1.6h-4.8l1.6-1.6c0.8-0.8,0.8-1.6,0-1.6
	c-0.8-0.8-1.6-0.8-1.6,0l-3.2,4l0,0h-2.4l-5.6-9.6l1.6-2.4l0,0l4.8-1.6c0.8,0,0.8-0.8,0.8-1.6c0-0.8-0.8-0.8-1.6-0.8l-2.4,0.8l2.4-4
	c0-0.8,0-1.6-0.8-1.6s-1.6,0-1.6,0.8l-2.4,4l-0.8-2.4c0-0.8-0.8-0.8-1.6-0.8c-0.8,0-0.8,0.8-0.8,0.8l0,0l1.6,4.8l0,0l-1.6,2.4h-12
	l-0.8-2.4l0,0l1.6-4.8c0-0.8,0-1.6-0.8-1.6s-1.6,0-1.6,0.8l-0.8,2.4l-2.4-4c0-0.8-0.8-0.8-1.6-0.8l-0.8,0.8v0.8l2.4,4l-2.4-0.8
	c-0.8,0-1.6,0-1.6,0.8l0,0c0,0.8,0,0.8,0.8,0.8l4.8,1.6l0,0l1.6,2.4l-5.6,10.4h-2.4l0,0l-4-2.4c-0.8-0.8-1.6-0.8-1.6,0v0.8v0.8
	l1.6,1.6h-4.8c-0.8,0-1.6,0.8-1.6,1.6c0,0.8,0.8,1.6,1.6,1.6h4.8l-1.6,1.6v0.8v0.8c0.8,0.8,1.6,0.8,1.6,0l3.2-3.2l0,0h2.4l6.4,9.6
	l-1.6,2.4l0,0l-4.8,1.6c-0.8,0-0.8,0.8-0.8,0.8l0,0c0,0.8,0.8,0.8,1.6,0.8l2.4-0.8l-2.4,4c0,0,0,0,0,0.8s0,0.8,0.8,0.8
	C328.3,384,329.1,384,329.9,383.2z M336.3,372l4.8-8l4.8,8H336.3z M347.5,370.4l-4.8-8h8.8L347.5,370.4z M352.3,360h-8.8l4.8-8
	L352.3,360z M345.1,351.2l-4.8,8l-4.8-8H345.1z M334.7,352.8l4.8,8h-8.8L334.7,352.8z M329.9,362.4h8.8l-4.8,8L329.9,362.4z"/>
<path style="fill:#B5EDF7;" d="M329.9,383.2l2.4-4l0.8,2.4c0,0.8,0.8,0.8,1.6,0.8c0.8,0,0.8-0.8,0.8-1.6l-1.6-4.8l0,0l1.6-2.4h12
	l1.6,2.4l0,0l-2.4,4.8l0,0c0,0.8,0,0.8,0.8,0.8s1.6,0,1.6-0.8l0.8-2.4l2.4,4c0,0.8,0.8,0.8,1.6,0.8c0.8,0,0.8-0.8,0.8-1.6l-2.4-4
	l2.4,0.8c0.8,0,1.6,0,1.6-0.8s0-1.6-0.8-1.6l-4.8-1.6l0,0l-1.6-1.6l5.6-10.4h2.4l0,0l3.2,3.2c0.8,0.8,1.6,0.8,1.6,0
	c0.8-0.8,0.8-1.6,0-1.6l-1.6-1.6h4.8c0.8,0,1.6-0.8,1.6-1.6l0,0h-51.2l0,0c0,0.8,0.8,1.6,1.6,1.6h4.8l-2.4,2.4v0.8v0.8
	c0.8,0.8,1.6,0.8,1.6,0l3.2-3.2l0,0h2.4l6.4,9.6l-1.6,2.4l0,0l-4.8,1.6c-0.8,0-0.8,0.8-0.8,0.8l0,0c0,0.8,0.8,0.8,1.6,0.8l2.4-0.8
	l-2.4,4c0,0,0,0,0,0.8s0,0.8,0.8,0.8C328.3,384,329.1,384,329.9,383.2z M352.3,362.4l-4.8,8l-4.8-8H352.3z M329.9,362.4h8.8l-4.8,8
	L329.9,362.4z M336.3,372l4.8-8l4.8,8H336.3z"/>
<g>
	<circle style="fill:#C7F4FF;" cx="214.7" cy="310.4" r="3.2"/>
	<circle style="fill:#C7F4FF;" cx="282.7" cy="330.4" r="9.6"/>
	<circle style="fill:#C7F4FF;" cx="308.3" cy="302.4" r="4.8"/>
	<circle style="fill:#C7F4FF;" cx="338.7" cy="310.4" r="3.2"/>
	<circle style="fill:#C7F4FF;" cx="305.1" cy="275.2" r="6.4"/>
	<circle style="fill:#C7F4FF;" cx="166.7" cy="242.4" r="3.2"/>
	<circle style="fill:#C7F4FF;" cx="201.1" cy="363.2" r="2.4"/>
	<circle style="fill:#C7F4FF;" cx="207.5" cy="395.2" r="4"/>
	<circle style="fill:#C7F4FF;" cx="283.5" cy="400.8" r="8"/>
	<circle style="fill:#C7F4FF;" cx="305.1" cy="367.2" r="5.6"/>
	<circle style="fill:#C7F4FF;" cx="307.5" cy="331.2" r="1.6"/>
	<circle style="fill:#C7F4FF;" cx="346.7" cy="329.6" r="1.6"/>
	<circle style="fill:#C7F4FF;" cx="157.9" cy="356" r="1.6"/>
	<circle style="fill:#C7F4FF;" cx="107.5" cy="377.6" r="2.4"/>
	<circle style="fill:#C7F4FF;" cx="254.7" cy="322.4" r="4.8"/>
	<circle style="fill:#C7F4FF;" cx="382.7" cy="335.2" r="5.6"/>
	<circle style="fill:#C7F4FF;" cx="98.7" cy="225.6" r="6.4"/>
</g>
<g>
</g>
<g>
</g>
<g>
</g>
<g>
</g>
<g>
</g>
<g>
</g>
<g>
</g>
<g>
</g>
<g>
</g>
<g>
</g>
<g>
</g>
<g>
</g>
<g>
</g>
<g>
</g>
<g>
</g>
</svg>
