<?xml version="1.0" encoding="utf-8"?>
<!-- Generator: Adobe Illustrator 20.0.0, SVG Export Plug-In . SVG Version: 6.00 Build 0)  -->
<svg version="1.1" id="Layer_1" xmlns="http://www.w3.org/2000/svg" xmlns:xlink="http://www.w3.org/1999/xlink" x="0px" y="0px"
	 viewBox="0 0 427.5 427.5" enable-background="new 0 0 427.5 427.5" xml:space="preserve">
<g>
	<path fill="#19AFBF" d="M384.9,209c0,94.4-76.5,170.9-170.9,170.9c-94.4,0-170.9-76.5-170.9-170.9S119.7,38.1,214,38.1
		C308.4,38.1,384.9,114.6,384.9,209L384.9,209z M384.9,209"/>
	<path fill="#0E94AA" d="M335,330c-66.6,66.6-175.4,66.6-241.9,0c-66.6-66.6-66.6-175.4,0-241.9"/>
	<path opacity="0.35" fill="#C5EAE7" d="M53.5,177.1c0-53.1,51.7-96.9,113.1-96.9c43.9,0,81.9,21.9,100.4,53.1
		c3.9-0.8,8.8-1.7,12.7-1.7c29.3,0,53.6,20.2,53.6,45.5v3.4c39,3.4,59.5,32.9,59.5,68.2v4.2c0,37.9-35.1,72.4-79,72.4H134.4
		c-43.9,0-82.9-34.5-82.9-72.4v-21.9C51.6,215,53.5,195.7,53.5,177.1L53.5,177.1z M53.5,177.1"/>
	<path fill="#3E9904" d="M408.6,386.5c-29.4-64-113.9-44.2-198.4-44.2c-84.5,0-169-19.8-198.4,44.2H408.6z M408.6,386.5"/>
	<path fill="#82C60A" d="M368.3,386.5c-25-64-86.4-107.5-158.1-107.5c-71.7,0-133.1,43.5-158.1,107.5H368.3z M368.3,386.5"/>
	<path fill="#74B208" d="M368.3,386.5c-25-64-86.4-88.3-158.1-88.3c-71.7,0-133.1,24.3-158.1,88.3H368.3z M368.3,386.5"/>
	<path fill="#DDDAC3" d="M284.6,304.4l-151-0.2l0.1-102.4l151,0.2L284.6,304.4z M284.6,304.4"/>
	<polyline fill="#C9C5AD" points="134.2,202 285.2,202.3 284.9,304.8 	"/>
	<path fill="#FCA12A" d="M201.6,300.4l-0.1-70.9c0.3-3.2-2.7-5.8-5.9-6.1l-35.3-0.4c-3.2-0.3-5.8,2.7-6.1,5.9l0.1,70.9L201.6,300.4z
		 M201.6,300.4"/>
	<path fill="#E58613" d="M201.8,265.9l-0.3-36.4c0.3-3.2-2.7-5.8-5.9-6.1l-35.3-0.4c-3.2-0.3-5.8,2.7-6.1,5.9"/>
	<path fill="#DB5435" d="M194.6,259c1.8,3,0.8,7-2.2,8.8c-3,1.8-7,0.8-8.8-2.2c-1.8-3-0.8-7,2.2-8.8C188.9,255,192.8,256,194.6,259
		L194.6,259z M194.6,259"/>
	<path fill="#C43D27" d="M193.6,257.4c2.2,2.4,2.2,6.1,0.1,8.9c-2.1,2.7-6.1,2.2-8.9,0.1"/>
	<path fill="#008AAA" d="M241.1,244.5l21,0.1l0-14.9c0.3-3.2-2.8-5.8-5.9-6.1l-14.9,0L241.1,244.5z M241.1,244.5"/>
	<path fill="#00A1AD" d="M235.1,244.4l0.1-21l-14.9,0c-3.2-0.3-5.8,2.7-6.1,5.9l0,14.9L235.1,244.4z M235.1,244.4"/>
	<path fill="#008AAA" d="M235,250.4l-21-0.1l0,14.9c-0.3,3.2,2.8,5.8,5.9,6.1l14.9,0L235,250.4z M235,250.4"/>
	<path fill="#00A1AD" d="M241,250.5l-0.1,21l14.9,0c3.2,0.3,5.8-2.7,6.1-5.9l0-14.9L241,250.5z M241,250.5"/>
	<path fill="#C43D27" d="M311,201l-102.3-78.1l-100.4,80.4L311,201z M311,201"/>
	<path fill="#AA1E0F" d="M311,201l-102.3-78.1l-51.1,80L311,201z M311,201"/>
	<path fill="#C43D27" d="M136.3,180.7l145.9-1.6l-7.8-5.8L144,174.7L136.3,180.7z M136.3,180.7"/>
	<path opacity="0.35" fill="#C5EAE7" d="M204.1,267.5c0-26.2,28-47.8,61.4-47.8c23.8,0,44.4,10.8,54.5,26.2c2.1-0.4,4.8-0.8,6.9-0.8
		c15.9,0,29.1,10,29.1,22.5v1.7c21.2,1.7,32.3,16.2,32.3,33.7v2.1c0,18.7-19,35.8-42.9,35.8H248c-23.8,0-45-17.1-45-35.8v-10.8
		C203,286.2,204.1,276.7,204.1,267.5L204.1,267.5z M204.1,267.5"/>
	<path display="none" opacity="0.35" fill="#C5EAE7" d="M204.1,267.5c0-26.2,28-47.8,61.4-47.8c23.8,0,44.4,10.8,54.5,26.2
		c2.1-0.4,4.8-0.8,6.9-0.8c15.9,0,29.1,10,29.1,22.5v1.7c21.2,1.7,32.3,16.2,32.3,33.7v2.1c0,18.7-19,35.8-42.9,35.8H248
		c-23.8,0-45-17.1-45-35.8v-10.8C203,286.2,204.1,276.7,204.1,267.5L204.1,267.5z M204.1,267.5"/>
	<path display="none" opacity="0.35" fill="#8BCCC2" d="M345.9,341.2H248c-23.8,0-45-17.1-45-35.8v-15c0-8.7,1.6-10.8,1.6-19.6"/>
	<path display="none" opacity="0.35" fill="#C5EAE7" d="M292.5,274.6c1.6-0.4,3.7-0.8,5.8-0.8c11.1,0,20.1,7.1,20.1,15.8
		c0,1.7-0.5,2.9-1.1,4.6C316.3,284.2,305.7,275.8,292.5,274.6L292.5,274.6z M292.5,274.6"/>
	<path display="none" opacity="0.35" fill="#C5EAE7" d="M257,260c2.1-0.8,4.8-1.7,7.4-2.1c15.3-2.1,29.6,5.8,32.3,17.5
		c0.5,2.1,0.5,4.2,0,6.2C291.9,268.3,275.5,259.2,257,260L257,260z M257,260"/>
	<path display="none" opacity="0.35" fill="#C5EAE7" d="M369.7,300.8c0,0.9-0.9,1.7-2.1,1.7c-1.2,0-2.1-0.7-2.1-1.7s0.9-1.7,2.1-1.7
		C368.8,299.1,369.7,299.9,369.7,300.8L369.7,300.8z M369.7,300.8"/>
	<path display="none" opacity="0.35" fill="#C5EAE7" d="M365,288.7c0,1.1-1.2,2.1-2.6,2.1c-1.5,0-2.6-0.9-2.6-2.1
		c0-1.1,1.2-2.1,2.6-2.1C363.8,286.7,365,287.6,365,288.7L365,288.7z M365,288.7"/>
	<path display="none" opacity="0.35" fill="#C5EAE7" d="M328.4,265.9c0,0.5-0.5,0.8-1.1,0.8c-0.6,0-1.1-0.4-1.1-0.8s0.5-0.8,1.1-0.8
		C328,265,328.4,265.4,328.4,265.9L328.4,265.9z M328.4,265.9"/>
	<path display="none" opacity="0.35" fill="#C5EAE7" d="M302,253.8c0,1.4-1.4,2.5-3.2,2.5c-1.8,0-3.2-1.1-3.2-2.5
		c0-1.4,1.4-2.5,3.2-2.5C300.6,251.3,302,252.4,302,253.8L302,253.8z M302,253.8"/>
	<path display="none" opacity="0.35" fill="#C5EAE7" d="M276.6,234.2c0,0.7-0.7,1.2-1.6,1.2c-0.9,0-1.6-0.6-1.6-1.2
		c0-0.7,0.7-1.2,1.6-1.2C275.9,233,276.6,233.5,276.6,234.2L276.6,234.2z M276.6,234.2"/>
	<path display="none" opacity="0.35" fill="#C5EAE7" d="M266,237.6c0,2.1-2.1,3.7-4.8,3.7c-2.6,0-4.8-1.7-4.8-3.7
		c0-2.1,2.1-3.7,4.8-3.7C263.9,233.8,266,235.5,266,237.6L266,237.6z M266,237.6"/>
	<path display="none" fill="#82C60A" d="M232.6,17.8c-13.4,9.6-28.8,3.8-37.8,20.5c-5.1,9.6,0,19.2,6.4,30.7
		c12.8,0.6,24.3,0,30.1-8.3C242.2,45.3,230,33.8,232.6,17.8L232.6,17.8z M232.6,17.8"/>
	<path display="none" fill="#5EA304" d="M201.2,68.4c12.8,0.6,24.3,0,30.1-8.3c10.2-15.4-1.9-26.2,0.6-42.9"/>
	<path display="none" fill="#74B208" d="M218.5,40.2L214,30l3.2,13.4l12.8-3.2H218.5z M218.5,40.2"/>
	<path display="none" fill="#74B208" d="M208.3,57.5l-5.1-10.2l3.2,12.8l13.4-3.2L208.3,57.5z M208.3,57.5"/>
	<path display="none" fill="#74B208" d="M214,48.5L208.3,37l3.2,14.7l15.4-3.2H214z M214,48.5"/>
	<path display="none" fill="#82C60A" d="M258.8,93.3v-1.3c-9,0-12.8-10.9-23-9.6c-5.8,0.6-6.4,7-12.8,13.4h0.6
		c3.8,5.8,8.3,10.9,14.1,10.9C248.6,106.8,250.5,97.2,258.8,93.3L258.8,93.3z M258.8,93.3"/>
	<path display="none" fill="#5EA304" d="M223,95.9h0.6c3.8,5.8,8.3,10.9,14.1,10.9c10.2,0,11.5-9.6,19.8-13.4v-1.3h3.8"/>
	<path display="none" fill="#74B208" d="M243.5,94.6l3.2-5.8l-5.1,5.8l5.8,5.1L243.5,94.6z M243.5,94.6"/>
	<path display="none" fill="#74B208" d="M232.6,95.3l2.6-5.8l-4.5,5.8l5.8,5.1L232.6,95.3z M232.6,95.3"/>
	<path display="none" fill="#74B208" d="M238.4,94.6l3.2-6.4l-5.8,7l6.4,5.1L238.4,94.6z M238.4,94.6"/>
	<path display="none" fill="#82C60A" d="M189.7,213.7c5.8,6.4,2.6,15.4,12.2,20.5c5.1,2.6,10.9-0.6,17.3-3.8c0-7,0-12.8-5.1-16
		C205.1,207.3,198.7,213.7,189.7,213.7L189.7,213.7z M189.7,213.7"/>
	<path display="none" fill="#5EA304" d="M219.2,230.3c0-7.7-0.6-13.4-5.8-16.6c-8.3-6.4-14.7,0-23.7,0h1.3"/>
	<path display="none" fill="#74B208" d="M202.5,220.1l-5.8,2.6l7.7-1.9l-1.9-7V220.1z M202.5,220.1"/>
	<path display="none" fill="#74B208" d="M212.1,225.8l-5.8,2.6l7.7-1.9l-1.9-7V225.8z M212.1,225.8"/>
	<path display="none" fill="#74B208" d="M207.6,222.6l-6.4,3.2l8.3-1.9l-2.6-8.3L207.6,222.6z M207.6,222.6"/>
	<path display="none" fill="#82C60A" d="M191,255.3c0,3.8-7.7,2.6-10.2,8.3c-1.3,3.2,1.3,6.4,3.8,9.6c3.8-0.6,7-1.3,8.3-4.5
		C196.1,263.6,191,261,191,255.3L191,255.3z M191,255.3"/>
	<path display="none" fill="#5EA304" d="M184.6,275.1l0.6-0.6c3.8-0.6,7-1.3,8.3-4.5c2.6-5.1-2.6-9-2.6-14.1v2.6"/>
	<path display="none" fill="#74B208" d="M189.7,263.6l-1.9-3.2l1.3,3.8l4.5-1.3L189.7,263.6z M189.7,263.6"/>
	<path display="none" fill="#74B208" d="M187.2,269.3l-1.9-3.2l1.9,4.5l3.8-1.9L187.2,269.3z M187.2,269.3"/>
	<path display="none" fill="#74B208" d="M188.4,266.1l-1.9-3.2l1.3,4.5l5.1-1.9L188.4,266.1z M188.4,266.1"/>
	<path display="none" fill="#82C60A" d="M152.6,67.1c0,3.8-8.3,2.6-10.2,8.3c-1.3,3.2,1.3,6.4,3.8,9.6c3.8-0.6,7-1.3,8.3-4.5
		C157.7,75.4,152.6,72.2,152.6,67.1L152.6,67.1z M152.6,67.1"/>
	<path display="none" fill="#5EA304" d="M145.6,84.4c4.5-0.6,7.7-0.6,9-3.8c2.6-5.1-2.6-8.3-2.6-13.4v-0.6"/>
	<path display="none" fill="#74B208" d="M150.7,74.8l-1.9-3.2l1.3,4.5l4.5-1.9L150.7,74.8z M150.7,74.8"/>
	<path display="none" fill="#74B208" d="M148.1,80.5l-1.9-2.6l1.3,3.8l4.5-1.3H148.1z M148.1,80.5"/>
	<path display="none" fill="#74B208" d="M149.4,78l-2.6-3.8l1.9,5.1l4.5-1.9L149.4,78z M149.4,78"/>
	<rect x="31" y="85.7" display="none" fill="#5EE0EA" width="211.2" height="12.8"/>
	<path display="none" fill="#30B9D8" d="M210.2,101.7L56,114.5L54,102.3l154.2-12.8L210.2,101.7z M210.2,101.7"/>
	<path display="none" fill="#30B9D8" d="M214.7,123.4L77.1,134.9l-1.9-10.9l138.2-11.5L214.7,123.4z M214.7,123.4"/>
	<path display="none" fill="#30B9D8" d="M212.8,140.7L82.2,151.6l-1.9-10.2l130.6-10.9L212.8,140.7z M212.8,140.7"/>
	<path display="none" fill="#30B9D8" d="M68.1,122.1l154.9-6.4l-0.6-11.5l-155.5,6.4L68.1,122.1z M68.1,122.1"/>
	<path display="none" fill="#30B9D8" d="M85.4,140.1l143.4-6.4l-1.3-10.9l-142.7,5.8L85.4,140.1z M85.4,140.1"/>
	<rect x="82.2" y="156.1" display="none" fill="#5EE0EA" width="140.8" height="12.8"/>
	<path display="none" fill="#30B9D8" d="M102.7,168.2l101.1,8.3l1.3-7.7L104,160.5L102.7,168.2z M102.7,168.2"/>
	<path display="none" fill="#5EE0EA" d="M99.5,182.3l90.2,7.7l1.3-7l-90.2-7.7L99.5,182.3z M99.5,182.3"/>
	<path display="none" fill="#5EE0EA" d="M100.8,193.2l85.8,7l1.3-6.4l-85.8-7L100.8,193.2z M100.8,193.2"/>
	<path display="none" fill="#30B9D8" d="M196.1,181.7l-102.4-3.8l0.6-8.3l102.4,4.5L196.1,181.7z M196.1,181.7"/>
	<path display="none" fill="#5EE0EA" d="M184.6,193.2l-94.1-3.8l0.6-7.7l93.4,3.8V193.2z M184.6,193.2"/>
	<path display="none" fill="#30B9D8" d="M189.3,213.7l-95,8.9l-0.8-8.9l95-8.9L189.3,213.7z M189.3,213.7"/>
	<path display="none" fill="#5EE0EA" d="M175,215.6L105.9,229l-1.3-6.4l68.5-13.4L175,215.6z M175,215.6"/>
	<path display="none" fill="#30B9D8" d="M177.6,227.1l-60.8,11.5l-1.3-5.1l60.8-12.2L177.6,227.1z M177.6,227.1"/>
	<path display="none" fill="#30B9D8" d="M177.6,236.1l-58.2,11.5l-0.6-5.1l57.6-11.5L177.6,236.1z M177.6,236.1"/>
	<path display="none" fill="#5EE0EA" d="M111.6,232.9l69.8-10.2l-1.3-6.4L111,226.5L111.6,232.9z M111.6,232.9"/>
	<path display="none" fill="#30B9D8" d="M120.6,241.2l64-9l-1.3-5.8l-63.4,9L120.6,241.2z M120.6,241.2"/>
	<path display="none" fill="#5EE0EA" d="M120.4,249.6l65.6,6.1l-0.5,5.7l-65.6-6.1L120.4,249.6z M120.4,249.6"/>
	<path display="none" fill="#5EE0EA" d="M129.6,257.2l48,9l0.6-4.5l-47.4-9L129.6,257.2z M129.6,257.2"/>
	<path display="none" fill="#5EE0EA" d="M127.6,264.9l42.2,8.3l1.3-3.8l-42.9-8.3L127.6,264.9z M127.6,264.9"/>
	<path display="none" fill="#5EE0EA" d="M127.6,271.3l40.3,7.7l0.6-3.2l-39.7-8.3L127.6,271.3z M127.6,271.3"/>
	<path display="none" fill="#30B9D8" d="M173.1,268.7l-48-6.4l0.6-4.5l48,6.4L173.1,268.7z M173.1,268.7"/>
	<path display="none" fill="#30B9D8" d="M167.3,275.1l-44.2-6.4l0.6-4.5l44.2,6.4L167.3,275.1z M167.3,275.1"/>
	<path display="none" fill="#30B9D8" d="M161.6,285.3l-28.2-2.6l5.8,4.5l7.7,1.9l-5.1,5.1l7.7,14.7l1.3-9l7-7.7l-7-2.6L161.6,285.3z
		 M161.6,285.3"/>
	<path fill="#3F9B04" d="M214.7,386.5L147.5,309l-67.8,77.4H214.7z M214.7,386.5"/>
	<path opacity="0.62" fill="#98D3CD" d="M245.6,288.8c0,8.7,1.1,12.1,1.1,20v10.8c0,18.7-21.2,35.8-45,35.8h-97.4
		c-23.8,0-42.9-17.1-42.9-35.8v-2.1c0-17.5,11.1-25.4,32.3-27v-1.7c0-12.5,13.2-22.5,29.1-22.5c2.1,0,4.8,0.4,6.9,0.8
		c10.1-15.4,30.7-26.2,54.5-26.2C217.6,240.9,245.6,262.6,245.6,288.8L245.6,288.8z M245.6,288.8"/>
	<path opacity="0.62" fill="#98D3CD" d="M245.9,301.5c0,7.1,0.8,9.8,0.8,16.2v8.8c0,15.2-15.4,29-32.7,29h-70.9
		c-17.3,0-31.2-13.8-31.2-29v-1.7c0-14.1,8.1-20.5,23.5-21.9v-1.3c0-10.1,9.6-18.2,21.2-18.2c1.5,0,3.5,0.3,5,0.7
		c7.3-12.5,22.3-21.2,39.7-21.2C225.5,262.8,245.9,280.3,245.9,301.5L245.9,301.5z M245.9,301.5"/>
</g>
</svg>
