<?xml version="1.0" encoding="iso-8859-1"?>
<!-- Generator: Adobe Illustrator 19.0.0, SVG Export Plug-In . SVG Version: 6.00 Build 0)  -->
<svg version="1.1" id="Layer_1" xmlns="http://www.w3.org/2000/svg" xmlns:xlink="http://www.w3.org/1999/xlink" x="0px" y="0px"
	 viewBox="0 0 473.931 473.931" style="enable-background:new 0 0 473.931 473.931;" xml:space="preserve">
<circle style="fill:#A2D4DE;" cx="236.966" cy="236.966" r="236.966"/>
<circle style="fill:#F1EB75;" cx="170.998" cy="251.559" r="102.345"/>
<path style="fill:#FFFFFF;" d="M323.95,327.363c0.221-1.557,1.231-2.9,1.231-4.516c0-24.651-26.656-44.639-59.554-44.639
	c-4.303,0-8.135,1.19-12.198,1.848c-9.856-13.104-27.839-22.32-49.354-22.32c-27.85,0-49.99,15.15-55.221,34.903
	c-27.012,5.366-47.393,22.993-47.393,44.953c0,20.8,18.162,37.923,43.034,44.273c8.423,18.956,31.521,32.849,59.58,32.849
	c25.455,0,47.03-11.394,57.219-27.573c6.541,2.178,13.687,3.48,21.302,3.48c29.171,0,52.83-17.751,52.83-39.67
	C335.43,341.944,330.712,334.027,323.95,327.363z"/>
<g>
	<path style="fill:#67B8CB;" d="M255.042,59.191c-15.921,0-28.834,12.905-28.834,28.83c0,15.932,12.913,28.845,28.834,28.845
		c15.929,0,28.841-12.913,28.841-28.845C283.884,72.096,270.971,59.191,255.042,59.191z M255.042,106.835
		c-10.38,0-18.799-8.419-18.799-18.81c0-10.383,8.419-18.802,18.799-18.802c10.387,0,18.81,8.419,18.81,18.802
		C273.856,98.416,265.433,106.835,255.042,106.835z"/>
	<path style="fill:#67B8CB;" d="M302.892,95.426h102.363v28.785h-60.777v23.401h51.913v27.053h-51.913v54.746h-41.586V95.426z"/>
</g>
<g>
</g>
<g>
</g>
<g>
</g>
<g>
</g>
<g>
</g>
<g>
</g>
<g>
</g>
<g>
</g>
<g>
</g>
<g>
</g>
<g>
</g>
<g>
</g>
<g>
</g>
<g>
</g>
<g>
</g>
</svg>
